<svg xmlns="http://www.w3.org/2000/svg" width="63.076" height="63.05" viewBox="0 0 63.076 63.05">
  <path id="businessman" d="M62.041,39.659h-6.1V36.607a3.056,3.056,0,0,0-3.052-3.052H42.711a3.039,3.039,0,0,0-2.221.972l-11-1.833V30.144a10.17,10.17,0,0,0,5.087-8.8H35.59a3.052,3.052,0,1,0,0-6.1H35.1l.558-1.293a8.216,8.216,0,0,0-4.14-10.733L28.68,1.923A10.431,10.431,0,0,0,18.272,3.053l-1.6,1.2,0,0a6.329,6.329,0,0,0-4.083,8.964l1.01,2.02h-.389a3.052,3.052,0,1,0,0,6.1h1.017a10.17,10.17,0,0,0,5.087,8.8v2.549L6.95,34.753A7.1,7.1,0,0,0,1,41.778v21.28a1.017,1.017,0,0,0,1.017,1.017H62.041a2.037,2.037,0,0,0,2.035-2.035V41.694A2.037,2.037,0,0,0,62.041,39.659ZM53.9,36.607v3.052H47.46a7.128,7.128,0,0,0-3.3-4.069h8.72A1.018,1.018,0,0,1,53.9,36.607Zm-12.208.2a5.082,5.082,0,0,1,3.591,2.854H41.694ZM36.607,18.294a1.019,1.019,0,0,1-1.017,1.017H34.573V17.277H35.59A1.019,1.019,0,0,1,36.607,18.294ZM14.565,8.175a4.326,4.326,0,0,1,3.689-2.089,4.755,4.755,0,0,1,3.962,2.119l.319.479,1.693-1.128-.319-.479a6.775,6.775,0,0,0-3.837-2.771,8.361,8.361,0,0,1,7.765-.532l2.839,1.293a6.182,6.182,0,0,1,3.115,8.076l-.068.159-1.292-2.584a1.018,1.018,0,0,0-1.521-.359l-1.628,1.221a8.137,8.137,0,0,1-9.767,0l-1.628-1.221a1.018,1.018,0,0,0-1.521.359l-1.379,2.758-.582-1.164a4.282,4.282,0,0,1,.159-4.138ZM13.208,19.312a1.017,1.017,0,0,1,0-2.035h1.017v2.035Zm3.052,2.035V15.483l1.382-2.764.653.489a10.173,10.173,0,0,0,12.208,0l.653-.489,1.382,2.764v5.864a8.139,8.139,0,0,1-16.278,0ZM24.4,31.52a10.127,10.127,0,0,0,3.052-.469v2.083L24.4,36.186l-3.052-3.052V31.051a10.127,10.127,0,0,0,3.052.469ZM24.07,42.711h.657l1.66,4.151L24.4,55.482l-1.989-8.62Zm2.257-4.219-1.456,2.184h-.946l-1.457-2.184.34-1.018.871.871a1.018,1.018,0,0,0,1.439,0l.871-.871ZM13.208,62.041V44.746H11.173V62.041H3.035V41.778a5.072,5.072,0,0,1,4.25-5.019l12.7-2.115,1.22,1.22-.819,2.456a1.013,1.013,0,0,0,.119.886l1.738,2.606L20.4,46.4a1.021,1.021,0,0,0-.047.606l3.052,13.226a1.018,1.018,0,0,0,1.984,0l3.052-13.226A1.022,1.022,0,0,0,28.4,46.4l-1.836-4.59L28.3,39.206a1.02,1.02,0,0,0,.119-.886L27.6,35.864l1.22-1.22,10.857,1.809c0,.052-.015.1-.015.154v3.052h-6.1a2.037,2.037,0,0,0-2.035,2.035V62.041Zm21.364,0H33.555V60.006H62.042v2.035Zm27.469-4.069H33.555V49.719a7.094,7.094,0,0,0,5.087,2.148h6.1v1.017a3.052,3.052,0,0,0,6.1,0V51.867h6.1a7.1,7.1,0,0,0,5.088-2.148ZM46.781,52.884V47.8h2.035v5.087a1.017,1.017,0,0,1-2.035,0Zm15.26-8.139a5.093,5.093,0,0,1-5.087,5.087h-6.1V46.78a1.017,1.017,0,0,0-1.017-1.017H45.763a1.017,1.017,0,0,0-1.017,1.017v3.052h-6.1a5.093,5.093,0,0,1-5.087-5.087V41.694H62.041Z" transform="translate(-1 -1.025)"/>
</svg>
