<svg xmlns="http://www.w3.org/2000/svg" width="16.527" height="16.527" viewBox="0 0 16.527 16.527">
  <g id="calculator_·_finance_·_business_·_calculation_·_money" data-name="calculator · finance · business · calculation · money" transform="translate(-2 -2)">
    <ellipse id="Эллипс_4" data-name="Эллипс 4" cx="0.5" cy="1" rx="0.5" ry="1" transform="translate(9 4.953)" fill="#fff"/>
    <ellipse id="Эллипс_5" data-name="Эллипс 5" cx="0.5" cy="1" rx="0.5" ry="1" transform="translate(10 4.953)" fill="#fff"/>
    <path id="Контур_340" data-name="Контур 340" d="M27.291,7.566l.551-1.653a.275.275,0,0,0-.261-.362H25.138l-.039-.31A.275.275,0,0,0,24.826,5h-.551a.275.275,0,0,0,0,.551h.308l.038.306v.008l.206,1.648a.275.275,0,0,0,.274.241H27.03a.275.275,0,0,0,.261-.188ZM25.345,7.2l-.138-1.1H27.2l-.367,1.1Z" transform="translate(-15.94 -2.174)" fill="#fff"/>
    <path id="Контур_341" data-name="Контур 341" d="M36.377,37.755h-.551a.275.275,0,0,1-.275-.275.275.275,0,1,0-.551,0,.826.826,0,0,0,.823.826l0,.272a.275.275,0,0,0,.272.279h0a.275.275,0,0,0,.275-.272l0-.279h0a.826.826,0,1,0,0-1.653h-.551a.275.275,0,1,1,0-.551h.551a.275.275,0,0,1,.275.275.275.275,0,0,0,.551,0,.826.826,0,0,0-.826-.826v-.275a.275.275,0,0,0-.551,0v.275a.826.826,0,1,0,0,1.653h.551a.275.275,0,1,1,0,.551Z" transform="translate(-23.91 -23.91)" fill="#fff"/>
    <path id="Контур_342" data-name="Контур 342" d="M17.15,2h-9.9a.277.277,0,0,0-.2.08L4.284,4.843a.285.285,0,0,0-.08.2v1.92H3.377A1.377,1.377,0,0,0,2,8.335V17.15a1.377,1.377,0,0,0,1.377,1.377H8.886a1.382,1.382,0,0,0,1.35-1.1h5.537a.275.275,0,0,0,0-.551H10.264v-1.9a2.755,2.755,0,1,0,0-3.917V8.335A1.377,1.377,0,0,0,8.886,6.958H4.755V5.305h2.2a.553.553,0,0,0,.551-.551v-2.2h9.365V3.928a.275.275,0,1,0,.551,0V2.275A.275.275,0,0,0,17.15,2Zm-6.886,9.96a2.2,2.2,0,1,1,0,2.116ZM8.886,7.509a.829.829,0,0,1,.826.826V17.15a.829.829,0,0,1-.826.826H3.377a.829.829,0,0,1-.826-.826V8.335a.829.829,0,0,1,.826-.826ZM6.958,4.755h-1.8l1.8-1.8Z" transform="translate(0 0)" fill="#fff"/>
    <path id="Контур_343" data-name="Контур 343" d="M42.755,7H40.275a.275.275,0,0,0,0,.551h2.479a.275.275,0,1,0,0-.551Z" transform="translate(-27.533 -3.623)" fill="#fff"/>
    <path id="Контур_344" data-name="Контур 344" d="M43.03,11.275A.275.275,0,0,0,42.755,11H40.275a.275.275,0,0,0,0,.551h2.479A.275.275,0,0,0,43.03,11.275Z" transform="translate(-27.533 -6.521)" fill="#fff"/>
    <path id="Контур_345" data-name="Контур 345" d="M41.03,15H38.275a.275.275,0,0,0,0,.551H41.03a.275.275,0,0,0,0-.551Z" transform="translate(-26.084 -9.419)" fill="#fff"/>
    <path id="Контур_346" data-name="Контур 346" d="M41.305,19.275A.275.275,0,0,0,41.03,19H38.275a.275.275,0,0,0,0,.551H41.03A.275.275,0,0,0,41.305,19.275Z" transform="translate(-26.084 -12.317)" fill="#fff"/>
    <path id="Контур_347" data-name="Контур 347" d="M37.305,23h-3.03a.275.275,0,1,0,0,.551h3.03a.275.275,0,0,0,0-.551Z" transform="translate(-23.185 -15.215)" fill="#fff"/>
    <path id="Контур_348" data-name="Контур 348" d="M37.305,27h-3.03a.275.275,0,1,0,0,.551h3.03a.275.275,0,1,0,0-.551Z" transform="translate(-23.185 -18.114)" fill="#fff"/>
    <path id="Контур_349" data-name="Контур 349" d="M51.2,12a1.377,1.377,0,0,0-1.377,1.377v1.377a.829.829,0,0,0-.826.826v2.2a.275.275,0,1,0,.551,0v-2.2a.275.275,0,0,1,.275-.275v6.886a.275.275,0,0,0,.275.275v.826a.275.275,0,0,0,.275.275h.061l.5,1.994a.275.275,0,0,0,.534,0l.5-1.994h.061a.275.275,0,0,0,.275-.275v-.826a.275.275,0,0,0,.275-.275V13.377A1.377,1.377,0,0,0,51.2,12Zm0,12.362-.2-.793h.4Zm.551-1.344h-1.1v-.551h1.1Zm.275-1.1H50.377V15.305H52.03Zm0-7.162H50.377V14.2H52.03Zm0-1.1H50.377v-.275a.826.826,0,0,1,1.653,0Z" transform="translate(-34.054 -7.245)" fill="#fff"/>
    <path id="Контур_350" data-name="Контур 350" d="M11.785,24H6.275A.275.275,0,0,0,6,24.275v2.2a.275.275,0,0,0,.275.275h5.509a.275.275,0,0,0,.275-.275v-2.2A.275.275,0,0,0,11.785,24Zm-.275,2.2H6.551V24.551h4.958Z" transform="translate(-2.898 -15.94)" fill="#fff"/>
    <path id="Контур_351" data-name="Контур 351" d="M7.377,36h-1.1A.275.275,0,0,0,6,36.275v1.1a.275.275,0,0,0,.275.275h1.1a.275.275,0,0,0,.275-.275v-1.1A.275.275,0,0,0,7.377,36ZM7.1,37.1H6.551v-.551H7.1Z" transform="translate(-2.898 -24.635)" fill="#fff"/>
    <path id="Контур_352" data-name="Контур 352" d="M7.377,44h-1.1A.275.275,0,0,0,6,44.275v1.1a.275.275,0,0,0,.275.275h1.1a.275.275,0,0,0,.275-.275v-1.1A.275.275,0,0,0,7.377,44ZM7.1,45.1H6.551v-.551H7.1Z" transform="translate(-2.898 -30.431)" fill="#fff"/>
    <path id="Контур_353" data-name="Контур 353" d="M7.377,52h-1.1A.275.275,0,0,0,6,52.275v1.1a.275.275,0,0,0,.275.275h1.1a.275.275,0,0,0,.275-.275v-1.1A.275.275,0,0,0,7.377,52ZM7.1,53.1H6.551v-.551H7.1Z" transform="translate(-2.898 -36.227)" fill="#fff"/>
    <path id="Контур_354" data-name="Контур 354" d="M15.377,36h-1.1a.275.275,0,0,0-.275.275v1.1a.275.275,0,0,0,.275.275h1.1a.275.275,0,0,0,.275-.275v-1.1A.275.275,0,0,0,15.377,36ZM15.1,37.1h-.551v-.551H15.1Z" transform="translate(-8.695 -24.635)" fill="#fff"/>
    <path id="Контур_355" data-name="Контур 355" d="M15.377,44h-1.1a.275.275,0,0,0-.275.275v1.1a.275.275,0,0,0,.275.275h1.1a.275.275,0,0,0,.275-.275v-1.1A.275.275,0,0,0,15.377,44ZM15.1,45.1h-.551v-.551H15.1Z" transform="translate(-8.695 -30.431)" fill="#fff"/>
    <path id="Контур_356" data-name="Контур 356" d="M15.377,52h-1.1a.275.275,0,0,0-.275.275v1.1a.275.275,0,0,0,.275.275h1.1a.275.275,0,0,0,.275-.275v-1.1A.275.275,0,0,0,15.377,52ZM15.1,53.1h-.551v-.551H15.1Z" transform="translate(-8.695 -36.227)" fill="#fff"/>
    <path id="Контур_357" data-name="Контур 357" d="M23.377,36h-1.1a.275.275,0,0,0-.275.275v1.1a.275.275,0,0,0,.275.275h1.1a.275.275,0,0,0,.275-.275v-1.1A.275.275,0,0,0,23.377,36ZM23.1,37.1h-.551v-.551H23.1Z" transform="translate(-14.491 -24.635)" fill="#fff"/>
    <path id="Контур_358" data-name="Контур 358" d="M23.377,44h-1.1a.275.275,0,0,0-.275.275v1.1a.275.275,0,0,0,.275.275h1.1a.275.275,0,0,0,.275-.275v-1.1A.275.275,0,0,0,23.377,44ZM23.1,45.1h-.551v-.551H23.1Z" transform="translate(-14.491 -30.431)" fill="#fff"/>
    <path id="Контур_359" data-name="Контур 359" d="M23.377,52h-1.1a.275.275,0,0,0-.275.275v1.1a.275.275,0,0,0,.275.275h1.1a.275.275,0,0,0,.275-.275v-1.1A.275.275,0,0,0,23.377,52ZM23.1,53.1h-.551v-.551H23.1Z" transform="translate(-14.491 -36.227)" fill="#fff"/>
  </g>
</svg>
