<svg xmlns="http://www.w3.org/2000/svg" width="73.014" height="63.05" viewBox="0 0 73.014 63.05">
  <g id="certificate" transform="translate(0 -34.936)">
    <path id="Контур_327" data-name="Контур 327" d="M70.518,34.936H2.5a2.5,2.5,0,0,0-2.5,2.5v8.784a1.07,1.07,0,0,0,2.139,0V37.432a.357.357,0,0,1,.357-.357H70.518a.357.357,0,0,1,.357.357V89.588a.357.357,0,0,1-.357.357H56.812V87.719H67.57a1.069,1.069,0,0,0,1.07-1.07v-11.2a1.07,1.07,0,0,0-2.139,0V85.58H56.812V80.834l.1.009a3.272,3.272,0,0,0,2.757-.591,3.285,3.285,0,0,0,.59-2.759A1.623,1.623,0,0,1,61,75.669c1.887-1.569,1.922-3.248,0-4.846A1.624,1.624,0,0,1,60.262,69c.209-2.392-.908-3.565-3.347-3.351a1.614,1.614,0,0,1-1.817-.74c-1.566-1.891-3.247-1.926-4.842,0a1.613,1.613,0,0,1-1.817.74c-2.394-.21-3.561.913-3.347,3.351a1.624,1.624,0,0,1-.739,1.824c-1.887,1.569-1.921,3.248,0,4.846a1.624,1.624,0,0,1,.739,1.824c-.225,2.562,1,3.553,3.45,3.342V85.58H6.514V41.439H66.5V69.745a1.07,1.07,0,0,0,2.139,0V40.37a1.069,1.069,0,0,0-1.07-1.07H5.445a1.069,1.069,0,0,0-1.07,1.07v46.28a1.069,1.069,0,0,0,1.07,1.07h43.1v2.226H2.5a.357.357,0,0,1-.357-.357V51.634a1.07,1.07,0,0,0-2.139,0V89.588a2.5,2.5,0,0,0,2.5,2.5H48.541v4.841a1.07,1.07,0,0,0,1.521.97l2.615-1.216,2.615,1.216a1.091,1.091,0,0,0,1.521-.97V92.084H70.518a2.5,2.5,0,0,0,2.5-2.5V37.432a2.5,2.5,0,0,0-2.5-2.5ZM48.251,78.712c-1.071.094-1.123.037-1.029-1.033a3.69,3.69,0,0,0-1.5-3.655c-.868-.722-.868-.834,0-1.556a3.69,3.69,0,0,0,1.5-3.655c-.094-1.07-.042-1.127,1.029-1.033A3.679,3.679,0,0,0,51.9,66.274c.719-.868.829-.868,1.548,0A3.681,3.681,0,0,0,57.1,67.78c1.071-.094,1.123-.037,1.029,1.033a3.69,3.69,0,0,0,1.5,3.655c.868.722.868.835,0,1.556a3.689,3.689,0,0,0-1.5,3.655c.094,1.07.042,1.128-1.029,1.033a4.469,4.469,0,0,0-2.1.153,4.267,4.267,0,0,0-1.547,1.353,3.955,3.955,0,0,1-.774.791,3.958,3.958,0,0,1-.774-.791,4.267,4.267,0,0,0-1.547-1.353,4.684,4.684,0,0,0-2.1-.153Zm4.877,15.817a1.069,1.069,0,0,0-.9,0l-1.545.719V82.079a2.39,2.39,0,0,0,3.993,0V95.248Z"/>
    <path id="Контур_328" data-name="Контур 328" d="M91.027,130.46H127.9a1.07,1.07,0,0,0,0-2.139H91.027A1.07,1.07,0,0,0,91.027,130.46Z" transform="translate(-77.156 -80.068)"/>
    <path id="Контур_329" data-name="Контур 329" d="M137.37,175.009a1.069,1.069,0,0,0-1.07-1.07H91.027a1.07,1.07,0,0,0,0,2.139H136.3A1.069,1.069,0,0,0,137.37,175.009Z" transform="translate(-77.157 -119.18)"/>
    <path id="Контур_330" data-name="Контур 330" d="M117.819,220.626a1.069,1.069,0,0,0-1.07-1.07H91.027a1.07,1.07,0,0,0,0,2.139H116.75A1.07,1.07,0,0,0,117.819,220.626Z" transform="translate(-77.157 -158.292)"/>
    <path id="Контур_331" data-name="Контур 331" d="M106.252,275.869l-1.749,0c-1.122,0-1.74-.3-1.969-1.488-.209-1.086-1.776-.948-2.063,0-.127.42-.769,1.621-1.329,1.523-.3-.052-.427-.51-.537-.748a9.122,9.122,0,0,1-.5-1.442c-.563-2.073-.675-4.237-1.028-6.348-.2-1.225-2.071-.878-2.1.284a32.728,32.728,0,0,1-2.02,10.828c-.489,1.288,1.578,1.845,2.063.569a30.242,30.242,0,0,0,1.225-4.1,10.843,10.843,0,0,0,.613,1.488,2.545,2.545,0,0,0,3.262,1.416,3.651,3.651,0,0,0,1.308-.955c1.012,1.167,2.517,1.114,3.922,1.112q3.176,0,6.352-.014a1.07,1.07,0,0,0,0-2.139q-2.723.008-5.446.012Z" transform="translate(-79.634 -198.627)"/>
    <path id="Контур_332" data-name="Контур 332" d="M344.271,282.641a4.177,4.177,0,1,0-4.177-4.177A4.182,4.182,0,0,0,344.271,282.641Zm0-6.216a2.038,2.038,0,1,1-2.038,2.038A2.041,2.041,0,0,1,344.271,276.425Z" transform="translate(-291.595 -205.217)"/>
  </g>
</svg>
