<svg id="china" xmlns="http://www.w3.org/2000/svg" width="76.383" height="49.279" viewBox="0 0 76.383 49.279">
  <path id="Контур_379" data-name="Контур 379" d="M80.57,90.839H9.115l-1.3,1.516v43.883a2.464,2.464,0,0,0,2.464,2.464H81.542l1.492-1.047V93.3A2.464,2.464,0,0,0,80.57,90.839Z" transform="translate(-6.651 -90.839)" fill="#e5646e"/>
  <path id="Контур_380" data-name="Контур 380" d="M2.464,130.262V90.839A2.464,2.464,0,0,0,0,93.3v44.351a2.464,2.464,0,0,0,2.464,2.464H73.919a2.464,2.464,0,0,0,2.464-2.464H9.856a7.392,7.392,0,0,1-7.392-7.392Z" transform="translate(0 -90.839)" fill="#db4655"/>
  <g id="Сгруппировать_67" data-name="Сгруппировать 67" transform="translate(7.995 4.774)">
    <path id="Контур_381" data-name="Контур 381" d="M67.169,159.876l-3.967-.035-1.948-4.262a.605.605,0,0,0-1.149,0l-1.421,4.262-4.493.035a.605.605,0,0,0-.355,1.092l3.614,2.669L56.1,167.921a.605.605,0,0,0,.929.675l3.655-2.613,3.655,2.613a.605.605,0,0,0,.929-.675l-1.355-4.284,3.614-2.669A.606.606,0,0,0,67.169,159.876Z" transform="translate(-53.59 -150.342)" fill="#ffe07d"/>
    <path id="Контур_382" data-name="Контур 382" d="M148.075,124.477l-.81-.007-.545-1.193a.752.752,0,0,0-1.4.075l-.373,1.118-1.078.008a.719.719,0,0,0-.421,1.3l.867.64-.325,1.027a.719.719,0,0,0,1.1.8l.877-.627.877.627a.719.719,0,0,0,1.1-.8l-.325-1.027.869-.641A.719.719,0,0,0,148.075,124.477Z" transform="translate(-129.795 -122.838)" fill="#ffe07d"/>
    <path id="Контур_383" data-name="Контур 383" d="M148.075,255.574l-.81-.007-.545-1.193a.752.752,0,0,0-1.4.075l-.373,1.118-1.078.008a.719.719,0,0,0-.421,1.3l.867.64-.325,1.027a.719.719,0,0,0,1.1.8l.877-.627.877.627a.719.719,0,0,0,1.1-.8l-.325-1.027.869-.641A.719.719,0,0,0,148.075,255.574Z" transform="translate(-129.795 -234.377)" fill="#ffe07d"/>
    <path id="Контур_384" data-name="Контур 384" d="M186.612,214.971l-.81-.007-.545-1.193a.752.752,0,0,0-1.4.075l-.373,1.118-1.078.008a.719.719,0,0,0-.421,1.3l.867.64-.325,1.027a.719.719,0,0,0,1.1.8l.877-.627.877.627a.719.719,0,0,0,1.1-.8l-.325-1.027.869-.641A.719.719,0,0,0,186.612,214.971Z" transform="translate(-162.583 -199.832)" fill="#ffe07d"/>
    <path id="Контур_385" data-name="Контур 385" d="M186.612,161.294l-.81-.007-.545-1.193a.752.752,0,0,0-1.4.075l-.373,1.118-1.078.008a.719.719,0,0,0-.421,1.3l.867.64-.325,1.027a.719.719,0,0,0,1.1.8l.877-.627.877.627a.719.719,0,0,0,1.1-.8l-.325-1.027.869-.641A.719.719,0,0,0,186.612,161.294Z" transform="translate(-162.583 -154.162)" fill="#ffe07d"/>
  </g>
</svg>
