<svg xmlns="http://www.w3.org/2000/svg" width="63.129" height="63.05" viewBox="0 0 63.129 63.05">
  <g id="contract_1_" data-name="contract (1)" transform="translate(0 -0.322)">
    <path id="Контур_333" data-name="Контур 333" d="M46.009,2.763,9.581.327a2.161,2.161,0,0,0-2.3,2.009L7,6.6H2.158A2.16,2.16,0,0,0,0,8.755v52.46a2.16,2.16,0,0,0,2.158,2.158H30.041a.935.935,0,0,0,.653-.269L34.9,58.912a.918.918,0,0,0,.131.019l7.186.481a2.211,2.211,0,0,0,2.3-2.009l3.5-52.343a2.176,2.176,0,0,0-2.009-2.3ZM30.966,60.209V53.785a.309.309,0,0,1,.308-.308h6.4ZM42.672,57.28a.308.308,0,0,1-.328.287l-5.706-.382,3.915-3.9a.925.925,0,0,0,.272-.655V8.755A2.16,2.16,0,0,0,38.667,6.6H29.05a.925.925,0,0,0,0,1.849h9.617a.309.309,0,0,1,.308.308V51.627h-7.7a2.16,2.16,0,0,0-2.158,2.158v7.737H2.158a.309.309,0,0,1-.308-.308V8.755a.309.309,0,0,1,.308-.308H24.126a.925.925,0,0,0,0-1.849H8.853L9.13,2.459a.308.308,0,0,1,.328-.287L45.885,4.609a.308.308,0,0,1,.287.328Z" transform="translate(0 0)"/>
    <path id="Контур_334" data-name="Контур 334" d="M81.92,237.047H56.7a.925.925,0,1,0,0,1.85H81.92a.925.925,0,0,0,0-1.85Z" transform="translate(-48.897 -207.537)"/>
    <path id="Контур_335" data-name="Контур 335" d="M81.92,289.332H56.7a.925.925,0,1,0,0,1.849H81.92a.925.925,0,0,0,0-1.849Z" transform="translate(-48.897 -253.375)"/>
    <path id="Контур_336" data-name="Контур 336" d="M55.774,185.687a.925.925,0,0,0,.925.925H81.92a.925.925,0,1,0,0-1.849H56.7A.925.925,0,0,0,55.774,185.687Z" transform="translate(-48.897 -161.698)"/>
    <path id="Контур_337" data-name="Контур 337" d="M91.807,133.4a.925.925,0,0,0,.925.925h16.336a.925.925,0,1,0,0-1.85H92.732a.925.925,0,0,0-.925.925Z" transform="translate(-80.487 -115.86)"/>
    <path id="Контур_338" data-name="Контур 338" d="M70.795,393.272l-4.99.011-1.677,0c-1.013,0-1.7-.2-1.922-1.317-.192-.942-1.524-.815-1.783,0-.64,2.014-1.7,1.225-2.291-.13a18.97,18.97,0,0,1-1-4.3c-.19-1.057-1.789-.761-1.816.246a17.231,17.231,0,0,1-.5,3.916,31.417,31.417,0,0,1-1.384,3.869c-.45,1.1,1.34,1.58,1.783.492a35.707,35.707,0,0,0,1.257-3.417c.634,1.524,1.945,3.248,3.813,2.232a3.725,3.725,0,0,0,.957-.771c.972,1.123,2.418,1.034,3.771,1.033q2.89,0,5.78-.012A.925.925,0,0,0,70.795,393.272Z" transform="translate(-46.782 -338.887)"/>
    <path id="Контур_339" data-name="Контур 339" d="M412.677,183.406a2.66,2.66,0,0,0-1.812-.742l-.7,0v-1.322A2.56,2.56,0,0,0,409,179.267v-1.862c0-3.831-5.964-3.814-5.964.018v1.862a2.444,2.444,0,0,0-1.166,2.078v1.354c-3.078.21-3.087,4.9,0,5.084.02,4.14.019,8.212,0,12.421a.925.925,0,0,0,1.849.01c.022-4.213.023-8.288,0-12.431l4.588-.023s-.006,13.668-.006,19.825c0,3-4.589,3.021-4.589-.031l0-1.686a.925.925,0,0,0-1.846-.111v1.582a4.542,4.542,0,0,0,1.232,3.313,7.733,7.733,0,0,0,2.265,5.173.981.981,0,0,0,1.325-.022,7.626,7.626,0,0,0,2.24-5.23c.61-.608,1.222-1.22,1.222-3.316v-8.428a2.591,2.591,0,0,0,3.267-2.459v-11.18a2.523,2.523,0,0,0-.748-1.8Zm-8.954-.706v-1.337a.594.594,0,0,1,.441-.571l3.7-.018a.584.584,0,0,1,.452.573v1.331Zm2.3-6.412a1.2,1.2,0,0,1,1.129,1.117v1.5l-2.265.011v-1.493A1.141,1.141,0,0,1,406.025,176.288Zm0,37.471a5.9,5.9,0,0,1-.915-2.023,4.022,4.022,0,0,0,1.833-.024A5.766,5.766,0,0,1,406.023,213.759Zm5.552-17.373a.707.707,0,0,1-1.412.016s0-8.751,0-9.553a.932.932,0,0,0-.932-.926l-7.2.036a.7.7,0,0,1,.009-1.4l8.83-.044a.693.693,0,0,1,.7.693v11.18Z" transform="translate(-350.296 -152.738)"/>
  </g>
</svg>
