<svg id="contract" xmlns="http://www.w3.org/2000/svg" width="37.933" height="37.885" viewBox="0 0 37.933 37.885">
  <path id="Контур_308" data-name="Контур 308" d="M27.646,1.789,5.757.325a1.3,1.3,0,0,0-1.38,1.207l-.171,2.56H1.3A1.3,1.3,0,0,0,0,5.389V36.911a1.3,1.3,0,0,0,1.3,1.3H18.051a.562.562,0,0,0,.392-.162l2.529-2.518a.552.552,0,0,0,.079.012l4.318.289a1.329,1.329,0,0,0,1.38-1.207l2.1-31.452a1.308,1.308,0,0,0-1.207-1.38ZM18.607,36.307v-3.86a.185.185,0,0,1,.185-.185h3.845Zm7.034-1.76a.185.185,0,0,1-.2.172l-3.429-.229,2.352-2.342a.556.556,0,0,0,.164-.394V5.389a1.3,1.3,0,0,0-1.3-1.3H17.456a.556.556,0,0,0,0,1.111h5.778a.185.185,0,0,1,.185.185V31.15H18.792a1.3,1.3,0,0,0-1.3,1.3V37.1H1.3a.185.185,0,0,1-.185-.185V5.389A.185.185,0,0,1,1.3,5.2H14.5a.556.556,0,0,0,0-1.111H5.32l.166-2.486a.185.185,0,0,1,.2-.172L27.572,2.9a.185.185,0,0,1,.172.2Z" transform="translate(0 -0.322)"/>
  <path id="Контур_309" data-name="Контур 309" d="M71.485,237.047H56.33a.556.556,0,1,0,0,1.111H71.485a.556.556,0,1,0,0-1.111Z" transform="translate(-51.642 -219.508)"/>
  <path id="Контур_310" data-name="Контур 310" d="M71.485,289.332H56.33a.556.556,0,1,0,0,1.111H71.485a.556.556,0,1,0,0-1.111Z" transform="translate(-51.642 -267.92)"/>
  <path id="Контур_311" data-name="Контур 311" d="M55.774,185.318a.556.556,0,0,0,.556.556H71.485a.556.556,0,1,0,0-1.111H56.33A.556.556,0,0,0,55.774,185.318Z" transform="translate(-51.642 -171.097)"/>
  <path id="Контур_312" data-name="Контур 312" d="M91.807,133.033a.556.556,0,0,0,.556.556h9.816a.556.556,0,0,0,0-1.111H92.363A.556.556,0,0,0,91.807,133.033Z" transform="translate(-85.005 -122.686)"/>
  <path id="Контур_313" data-name="Контур 313" d="M63.837,390.717l-3,.006H59.831c-.609,0-1.019-.122-1.155-.791-.115-.566-.916-.49-1.072,0-.385,1.21-1.02.736-1.377-.078a11.4,11.4,0,0,1-.6-2.586c-.114-.635-1.075-.457-1.091.148a10.354,10.354,0,0,1-.3,2.353A18.88,18.88,0,0,1,53.4,392.1c-.271.664.805.95,1.072.3a21.466,21.466,0,0,0,.755-2.053c.381.916,1.169,1.952,2.291,1.341a2.24,2.24,0,0,0,.575-.463,2.716,2.716,0,0,0,2.266.62l3.473-.007A.556.556,0,0,0,63.837,390.717Z" transform="translate(-49.408 -358.232)"/>
  <path id="Контур_314" data-name="Контур 314" d="M407.442,179.868a1.6,1.6,0,0,0-1.089-.446l-.42,0v-.794a1.538,1.538,0,0,0-.7-1.249v-1.119a1.793,1.793,0,0,0-3.584.011v1.119a1.468,1.468,0,0,0-.7,1.249v.814a1.534,1.534,0,0,0,0,3.055c.012,2.487.011,4.934,0,7.463a.556.556,0,0,0,1.111.006c.013-2.531.014-4.98,0-7.47l2.757-.014s0,8.213,0,11.912a1.379,1.379,0,0,1-2.758-.019v-1.013a.556.556,0,0,0-1.109-.067v.951a2.729,2.729,0,0,0,.74,1.991,4.646,4.646,0,0,0,1.361,3.108.589.589,0,0,0,.8-.013,4.582,4.582,0,0,0,1.346-3.142,2.293,2.293,0,0,0,.734-1.993v-5.064a1.557,1.557,0,0,0,1.963-1.478V180.95A1.516,1.516,0,0,0,407.442,179.868Zm-5.38-.424v-.8a.357.357,0,0,1,.265-.343l2.224-.011a.351.351,0,0,1,.271.344v.8Zm1.383-3.853a.723.723,0,0,1,.678.671v.9l-1.361.007v-.9A.686.686,0,0,1,403.445,175.591Zm0,22.516a3.544,3.544,0,0,1-.55-1.216,2.417,2.417,0,0,0,1.1-.014A3.465,3.465,0,0,1,403.444,198.106Zm3.336-10.439a.425.425,0,0,1-.848.01s0-5.258,0-5.74a.56.56,0,0,0-.56-.556l-4.326.021a.422.422,0,0,1,.005-.842l5.306-.026a.417.417,0,0,1,.421.416v6.718Z" transform="translate(-369.959 -161.633)"/>
</svg>
