<svg id="germany" xmlns="http://www.w3.org/2000/svg" width="76.383" height="49.279" viewBox="0 0 76.383 49.279">
  <path id="Контур_386" data-name="Контур 386" d="M82.906,107.265V93.3a2.464,2.464,0,0,0-2.464-2.464H8.987L7.667,93.3v13.962l2.552,3.285H79.21Z" transform="translate(-6.523 -90.839)" fill="#5d5360"/>
  <path id="Контур_387" data-name="Контур 387" d="M0,93.3v13.962l2.464,2.19V90.839A2.464,2.464,0,0,0,0,93.3Z" transform="translate(0 -90.839)" fill="#4b3f4e"/>
  <path id="Контур_388" data-name="Контур 388" d="M7.817,292.317v12.894a2.464,2.464,0,0,0,2.464,2.464H80.57l2.464-1.4V292.317l-3.7-3.285H10.347Z" transform="translate(-6.651 -259.464)" fill="#ffe07d"/>
  <path id="Контур_389" data-name="Контур 389" d="M2.464,305.134v-8.761L0,298.563v13.962a2.464,2.464,0,0,0,2.464,2.464H73.919a2.464,2.464,0,0,0,2.464-2.464H9.856a7.392,7.392,0,0,1-7.392-7.392Z" transform="translate(0 -265.71)" fill="#ffd064"/>
  <path id="Контур_390" data-name="Контур 390" d="M8.667,215.276l1.171,2.1H83.757V200.946H9.838L8.667,203.54Z" transform="translate(-7.374 -184.52)" fill="#e5646e"/>
  <path id="Контур_391" data-name="Контур 391" d="M0,200.946H2.464v16.426H0Z" transform="translate(0 -184.52)" fill="#db4655"/>
</svg>
