<svg xmlns="http://www.w3.org/2000/svg" width="29.71" height="27.424" viewBox="0 0 29.71 27.424">
  <g id="Icon_ionic-md-chatboxes" data-name="Icon ionic-md-chatboxes" transform="translate(-3.375 -4.5)">
    <path id="Контур_13" data-name="Контур 13" d="M27.911,4.5H4.061a.687.687,0,0,0-.686.583v15.3A.716.716,0,0,0,4.061,21h4.1v6.349L14.6,21H27.911a.576.576,0,0,0,.532-.616V5.083A.546.546,0,0,0,27.911,4.5Z" transform="translate(0)" fill="#fff"/>
    <path id="Контур_14" data-name="Контур 14" d="M32.4,8.93H30.083v11.9c0,1.142-.494,1.888-1.8,1.888H15.378L12.6,25.5h9.262L28.3,31.855V25.5h4.1a.589.589,0,0,0,.543-.62V9.58A.618.618,0,0,0,32.4,8.93Z" transform="translate(0.145 0.07)" fill="#fff"/>
  </g>
</svg>
