<svg xmlns="http://www.w3.org/2000/svg" width="18.002" height="18.002" viewBox="0 0 18.002 18.002">
  <path id="Icon_material-language" data-name="Icon material-language" d="M11.992,3A9,9,0,1,0,21,12,9,9,0,0,0,11.992,3ZM18.23,8.4H15.575a14.086,14.086,0,0,0-1.242-3.2A7.228,7.228,0,0,1,18.23,8.4ZM12,4.836A12.68,12.68,0,0,1,13.72,8.4H10.282A12.68,12.68,0,0,1,12,4.836ZM5.034,13.8a7.041,7.041,0,0,1,0-3.6H8.077A14.866,14.866,0,0,0,7.951,12a14.866,14.866,0,0,0,.126,1.8Zm.738,1.8H8.428a14.086,14.086,0,0,0,1.242,3.2A7.189,7.189,0,0,1,5.772,15.6ZM8.428,8.4H5.772a7.189,7.189,0,0,1,3.9-3.2A14.086,14.086,0,0,0,8.428,8.4ZM12,19.166A12.68,12.68,0,0,1,10.282,15.6H13.72A12.68,12.68,0,0,1,12,19.166ZM14.108,13.8H9.895A13.243,13.243,0,0,1,9.751,12a13.128,13.128,0,0,1,.144-1.8h4.213a13.128,13.128,0,0,1,.144,1.8A13.243,13.243,0,0,1,14.108,13.8Zm.225,5a14.086,14.086,0,0,0,1.242-3.2H18.23A7.228,7.228,0,0,1,14.333,18.806Zm1.593-5a14.866,14.866,0,0,0,.126-1.8,14.866,14.866,0,0,0-.126-1.8h3.042a7.041,7.041,0,0,1,0,3.6Z" transform="translate(-3 -3)" fill="#fff"/>
</svg>
