<svg xmlns="http://www.w3.org/2000/svg" width="31.792" height="31.832" viewBox="0 0 31.792 31.832">
  <path id="Icon_zocial-call" data-name="Icon zocial-call" d="M3.334,9.193a2.342,2.342,0,0,1,.6-1.272L8.7,3.151q.557-.477.835.159l3.855,7.234a1.041,1.041,0,0,1-.2,1.232l-1.749,1.749a1.978,1.978,0,0,0-.556,1.232,6.067,6.067,0,0,0,1.232,3.06A26.135,26.135,0,0,0,14.542,21l1.232,1.271c.371.371.847.828,1.432,1.371a24,24,0,0,0,2.88,2.146,6.447,6.447,0,0,0,3.16,1.331,1.73,1.73,0,0,0,1.272-.517l2.068-2.067a.873.873,0,0,1,1.191-.159l6.957,4.094a.581.581,0,0,1,.318.417.508.508,0,0,1-.159.457l-4.769,4.769a2.336,2.336,0,0,1-1.271.595,9.615,9.615,0,0,1-4.393-.537,19.876,19.876,0,0,1-4.53-2.166q-2.087-1.351-3.875-2.741t-2.862-2.385l-1.033-.995q-.4-.4-1.053-1.093T8.819,22.05A39.917,39.917,0,0,1,6,18.056,23.3,23.3,0,0,1,3.93,13.624,9.428,9.428,0,0,1,3.334,9.193Z" transform="translate(-3.267 -2.947)" fill="#fff"/>
</svg>
