<svg xmlns="http://www.w3.org/2000/svg" width="27.424" height="27.424" viewBox="0 0 27.424 27.424">
  <path id="Icon_awesome-phone-alt" data-name="Icon awesome-phone-alt" d="M26.642,19.38l-6-2.571a1.286,1.286,0,0,0-1.5.37l-2.657,3.246A19.854,19.854,0,0,1,7,10.933l3.246-2.657a1.282,1.282,0,0,0,.37-1.5L8.04.777A1.294,1.294,0,0,0,6.567.033L1,1.318A1.286,1.286,0,0,0,0,2.571,24.851,24.851,0,0,0,24.854,27.425a1.286,1.286,0,0,0,1.253-1l1.286-5.571a1.3,1.3,0,0,0-.75-1.478Z" transform="translate(0 0)" fill="#fff"/>
</svg>
