<svg xmlns="http://www.w3.org/2000/svg" width="38.751" height="38.75" viewBox="0 0 38.751 38.75">
  <g id="location" transform="translate(-4.556 -4.56)">
    <path id="Контур_315" data-name="Контур 315" d="M58.856,27.062a4.817,4.817,0,1,0-4.817,4.817,4.816,4.816,0,0,0,4.817-4.817Zm-8.492,0a3.676,3.676,0,1,1,3.676,3.676,3.676,3.676,0,0,1-3.676-3.676Z" transform="translate(-30.108 -11.922)"/>
    <path id="Контур_316" data-name="Контур 316" d="M43.269,42.535l-4.65-12.19a.571.571,0,0,0-.533-.367h-8.8l.161-.261c3.386-5.606,5.09-10.51,5.066-14.574a10.582,10.582,0,1,0-21.163,0c-.024,4.066,1.68,8.971,5.066,14.576.054.089.107.174.161.261h-8.8a.571.571,0,0,0-.533.367L4.594,42.535a.57.57,0,0,0,.533.774h37.61a.57.57,0,0,0,.533-.774ZM14.491,15.14a9.441,9.441,0,0,1,18.881,0c.049,8.1-7.526,18.1-9.441,20.494-1.915-2.4-9.49-12.386-9.441-20.5ZM23.5,36.907a.57.57,0,0,0,.869,0,60.534,60.534,0,0,0,4.2-5.788h9.122l.73,1.915L20.6,39.373l-6.354-8.256h5.049A60.535,60.535,0,0,0,23.5,36.907Zm-2.92,3.683h0l10.635-3.781,4.125,5.36h-19.2ZM10.169,31.117H12.8l6.663,8.658-6.729,2.393H5.955ZM36.781,42.168,32.345,36.4,38.831,34.1l3.078,8.07Z"/>
  </g>
</svg>
