<svg xmlns="http://www.w3.org/2000/svg" width="31.495" height="38.75" viewBox="0 0 31.495 38.75">
  <g id="money" transform="translate(-47.923 0)">
    <g id="Сгруппировать_33" data-name="Сгруппировать 33" transform="translate(57.294 8.863)">
      <g id="Сгруппировать_32" data-name="Сгруппировать 32">
        <g id="Сгруппировать_31" data-name="Сгруппировать 31">
          <path id="Контур_317" data-name="Контур 317" d="M316.209,117.134h.045S316.219,117.046,316.209,117.134Z" transform="translate(-305.276 -117.095)"/>
          <path id="Контур_318" data-name="Контур 318" d="M171.747,117.134h.045C171.782,117.046,171.747,117.134,171.747,117.134Z" transform="translate(-171.747 -117.095)"/>
        </g>
      </g>
    </g>
    <g id="Сгруппировать_35" data-name="Сгруппировать 35" transform="translate(47.923 0.001)">
      <g id="Сгруппировать_34" data-name="Сгруппировать 34">
        <path id="Контур_319" data-name="Контур 319" d="M79.148,11.689a1.78,1.78,0,0,0-1.117-.8l-2.456-.564,1.134-.317a1.792,1.792,0,1,0-.966-3.451l-5.288,1.48a1.8,1.8,0,0,0-.569-.624c1.073-2,2.62-5.387,2.62-6.845a.578.578,0,0,0-.685-.561,28.362,28.362,0,0,1-5.98.6,34.492,34.492,0,0,1-5.986-.6.577.577,0,0,0-.61.853,5.93,5.93,0,0,1,.735,1.962A11.848,11.848,0,0,1,54.5,1.891a.577.577,0,0,0-.82.605A12.39,12.39,0,0,0,56.1,8.33h-.021a1.791,1.791,0,0,0-.234,3.568,21.424,21.424,0,0,1-2.513,3.155c-2.041,2.269-4.355,4.84-5.134,8.992a13.31,13.31,0,0,0,.037,5.525,10.233,10.233,0,0,0,2.1,4.218,12.92,12.92,0,0,0,5.538,3.769,20.644,20.644,0,0,0,13.834,0,12.921,12.921,0,0,0,5.538-3.769,10.233,10.233,0,0,0,2.1-4.218,13.311,13.311,0,0,0,.037-5.525c-.778-4.152-3.092-6.723-5.134-8.992-.693-.77-1.352-1.5-1.905-2.25l6.893,1.584a1.792,1.792,0,0,0,1.92-2.7ZM65.827,1.754a28.878,28.878,0,0,0,5.425-.47,29.623,29.623,0,0,1-2.5,5.832A1.8,1.8,0,0,0,67.185,8.33H65.6l-.12-.256a13.311,13.311,0,0,1-1.512-5.062.577.577,0,0,0-.684-.561,20.178,20.178,0,0,1-2.159.308,7.375,7.375,0,0,0-.384-1.425A38.509,38.509,0,0,0,65.827,1.754Zm3.7,7.148v2.44a.648.648,0,1,1-1.3,0V8.9a.648.648,0,1,1,1.3,0ZM55.014,3.339a14.459,14.459,0,0,0,5.087.638L61.234,3.9c.535-.049,1.077-.12,1.623-.212A15.278,15.278,0,0,0,64.335,8.33H57.555a.585.585,0,0,0-.042-.059A10.942,10.942,0,0,1,55.014,3.339ZM71.39,15.818c1.941,2.157,4.14,4.6,4.86,8.438.662,3.531.026,6.492-1.892,8.8-2.364,2.848-6.691,4.549-11.575,4.549s-9.211-1.7-11.575-4.549c-1.917-2.31-2.553-5.271-1.892-8.8.719-3.836,2.919-6.281,4.86-8.438a18.747,18.747,0,0,0,2.959-3.9h1.4a.572.572,0,0,0,0-1.144H56.075a.648.648,0,1,1,0-1.3H67.091v1.3H61.259a.572.572,0,1,0,0,1.144h5.926a1.792,1.792,0,0,0,1.965,1.2A27.805,27.805,0,0,0,71.39,15.818Zm-.715-6.65,5.376-1.5A.648.648,0,1,1,76.4,8.911l-3.072.86a.568.568,0,0,0-.072.026L70.675,9.2Zm7.586,3.618a.648.648,0,0,1-.777.486L70.639,11.7a1.8,1.8,0,0,0,.036-.358v-.964l7.1,1.631A.654.654,0,0,1,78.261,12.786Z" transform="translate(-47.923 -0.001)"/>
      </g>
    </g>
    <g id="Сгруппировать_37" data-name="Сгруппировать 37" transform="translate(57.637 14.429)">
      <g id="Сгруппировать_36" data-name="Сгруппировать 36">
        <path id="Контур_320" data-name="Контур 320" d="M185.083,199.722a1.488,1.488,0,0,0,1.487-1.487v-.915a4.237,4.237,0,0,0-3.66-4.193v-.992a1.487,1.487,0,0,0-2.973,0V193.2a4.689,4.689,0,0,0,1.029,9.263h.915a1.715,1.715,0,0,1,0,3.431h-1.372a1.259,1.259,0,0,1-1.258-1.258,1.487,1.487,0,0,0-2.973,0,4.237,4.237,0,0,0,3.66,4.193v.992a1.487,1.487,0,0,0,2.973,0v-1.067a4.689,4.689,0,0,0-1.029-9.263h-.915a1.715,1.715,0,0,1,0-3.431h1.372a1.259,1.259,0,0,1,1.258,1.258v.915A1.488,1.488,0,0,0,185.083,199.722Zm-2.745-4.8h-1.372a2.859,2.859,0,0,0,0,5.718h.915a3.545,3.545,0,0,1,.394,7.068.572.572,0,0,0-.509.568v1.551a.343.343,0,0,1-.686,0V208.3a.572.572,0,0,0-.572-.572,3.091,3.091,0,0,1-3.088-3.088.343.343,0,0,1,.686,0,2.4,2.4,0,0,0,2.4,2.4h1.372a2.859,2.859,0,0,0,0-5.718h-.915a3.545,3.545,0,0,1-.394-7.068.572.572,0,0,0,.509-.568v-1.551a.343.343,0,1,1,.686,0v1.525a.572.572,0,0,0,.572.572,3.091,3.091,0,0,1,3.088,3.088v.915a.343.343,0,0,1-.686,0v-.915A2.4,2.4,0,0,0,182.338,194.918Z" transform="translate(-176.277 -190.649)"/>
      </g>
    </g>
  </g>
</svg>
