<svg id="russia" xmlns="http://www.w3.org/2000/svg" width="76.383" height="49.279" viewBox="0 0 76.383 49.279">
  <g id="Сгруппировать_68" data-name="Сгруппировать 68" transform="translate(0 0)">
    <path id="Контур_392" data-name="Контур 392" d="M82.906,107.265V93.3a2.464,2.464,0,0,0-2.464-2.464H8.987L7.667,93.3v13.962l2.552,3.285H79.21Z" transform="translate(-6.523 -90.839)" fill="#f2f2f6"/>
    <path id="Контур_393" data-name="Контур 393" d="M0,93.3v13.962l2.464,2.19V90.839A2.464,2.464,0,0,0,0,93.3Z" transform="translate(0 -90.839)" fill="#e1e1e6"/>
    <path id="Контур_394" data-name="Контур 394" d="M7.817,292.317v12.894a2.464,2.464,0,0,0,2.464,2.464H80.57l2.464-1.4V292.317l-3.7-3.285H10.347Z" transform="translate(-6.651 -259.464)" fill="#e5646e"/>
    <path id="Контур_395" data-name="Контур 395" d="M2.464,305.134v-8.761L0,298.563v13.962a2.464,2.464,0,0,0,2.464,2.464H73.919a2.464,2.464,0,0,0,2.464-2.464H9.856a7.392,7.392,0,0,1-7.392-7.392Z" transform="translate(0 -265.71)" fill="#db4655"/>
    <path id="Контур_396" data-name="Контур 396" d="M8.667,215.276l1.171,2.1H83.757V200.946H9.838L8.667,203.54Z" transform="translate(-7.374 -184.52)" fill="#5055a0"/>
    <path id="Контур_397" data-name="Контур 397" d="M0,200.946H2.464v16.426H0Z" transform="translate(0 -184.52)" fill="#3f3f8f"/>
  </g>
</svg>
