<svg id="united-states" xmlns="http://www.w3.org/2000/svg" width="76.383" height="49.279" viewBox="0 0 76.383 49.279">
  <path id="Контур_400" data-name="Контур 400" d="M81.576,90.839h-34.5L9,117.194V139.1H81.576l2.464-1.445v-4.576l-1.6-1.525v-4.326l1.6-1.189V119L82.6,117.617v-4.426l1.442-1.233v-7.04L82.6,103.643V99.764l1.442-1.886V93.3a2.464,2.464,0,0,0-2.464-2.464Z" transform="translate(-7.657 -90.839)" fill="#e5646e"/>
  <path id="Контур_401" data-name="Контур 401" d="M256.333,138.028h38.142v7.04H256.333Z" transform="translate(-218.092 -130.988)" fill="#f2f2f6"/>
  <path id="Контур_402" data-name="Контур 402" d="M256,232.4l1.232,7.04h36.96V232.4Z" transform="translate(-217.808 -211.285)" fill="#f2f2f6"/>
  <path id="Контур_403" data-name="Контур 403" d="M2.464,283.546V271L0,272.282v7.04l1.044.89v4.625L0,286.362v4.576A2.464,2.464,0,0,0,2.464,293.4H73.919a2.464,2.464,0,0,0,2.464-2.464H9.856a7.392,7.392,0,0,1-7.392-7.392Z" transform="translate(0 -244.123)" fill="#db4655"/>
  <path id="Контур_404" data-name="Контур 404" d="M44.528,90.839H7.569L6,93.3,7.569,119h36.96Z" transform="translate(-5.105 -90.839)" fill="#5055a0"/>
  <path id="Контур_405" data-name="Контур 405" d="M2.464,90.839A2.464,2.464,0,0,0,0,93.3V119H2.464Z" transform="translate(0 -90.839)" fill="#3f3f8f"/>
  <path id="Контур_406" data-name="Контур 406" d="M26.053,113.6a1.232,1.232,0,0,1-.012-2.464h.012a1.232,1.232,0,1,1,0,2.464Z" transform="translate(-21.113 -108.112)" fill="#fff"/>
  <path id="Контур_407" data-name="Контур 407" d="M26.053,179.67a1.232,1.232,0,0,1-.012-2.464h.012a1.232,1.232,0,1,1,0,2.464Z" transform="translate(-21.113 -164.321)" fill="#fff"/>
  <path id="Контур_408" data-name="Контур 408" d="M26.053,245.734a1.232,1.232,0,0,1-.012-2.464h.012a1.232,1.232,0,1,1,0,2.464Z" transform="translate(-21.113 -220.529)" fill="#fff"/>
  <path id="Контур_409" data-name="Контур 409" d="M26.053,146.638a1.232,1.232,0,0,1-.012-2.464h.012a1.232,1.232,0,1,1,0,2.464Z" transform="translate(-21.113 -136.217)" fill="#f2f2f6"/>
  <path id="Контур_410" data-name="Контур 410" d="M26.053,212.7a1.232,1.232,0,0,1-.012-2.464h.012a1.232,1.232,0,1,1,0,2.464Z" transform="translate(-21.113 -192.425)" fill="#f2f2f6"/>
  <path id="Контур_411" data-name="Контур 411" d="M224.246,113.6a1.232,1.232,0,0,1-.012-2.464h.012a1.232,1.232,0,1,1,0,2.464Z" transform="translate(-189.738 -108.112)" fill="#fff"/>
  <path id="Контур_412" data-name="Контур 412" d="M224.246,179.67a1.232,1.232,0,0,1-.012-2.464h.012a1.232,1.232,0,1,1,0,2.464Z" transform="translate(-189.738 -164.321)" fill="#fff"/>
  <path id="Контур_413" data-name="Контур 413" d="M224.246,245.734a1.232,1.232,0,0,1-.012-2.464h.012a1.232,1.232,0,1,1,0,2.464Z" transform="translate(-189.738 -220.529)" fill="#fff"/>
  <g id="Сгруппировать_70" data-name="Сгруппировать 70" transform="translate(11.094 3.029)">
    <path id="Контур_414" data-name="Контур 414" d="M224.246,146.638a1.232,1.232,0,0,1-.012-2.464h.012a1.232,1.232,0,1,1,0,2.464Z" transform="translate(-200.832 -139.246)" fill="#f2f2f6"/>
    <path id="Контур_415" data-name="Контур 415" d="M224.246,212.7a1.232,1.232,0,0,1-.012-2.464h.012a1.232,1.232,0,1,1,0,2.464Z" transform="translate(-200.832 -195.454)" fill="#f2f2f6"/>
    <path id="Контур_416" data-name="Контур 416" d="M75.6,113.6a1.232,1.232,0,0,1-.012-2.464H75.6a1.232,1.232,0,1,1,0,2.464Z" transform="translate(-74.363 -111.141)" fill="#f2f2f6"/>
    <path id="Контур_417" data-name="Контур 417" d="M75.6,179.67a1.232,1.232,0,0,1-.012-2.464H75.6a1.232,1.232,0,1,1,0,2.464Z" transform="translate(-74.363 -167.35)" fill="#f2f2f6"/>
    <path id="Контур_418" data-name="Контур 418" d="M75.6,245.734a1.232,1.232,0,0,1-.012-2.464H75.6a1.232,1.232,0,1,1,0,2.464Z" transform="translate(-74.363 -223.558)" fill="#f2f2f6"/>
  </g>
  <path id="Контур_419" data-name="Контур 419" d="M75.6,146.638a1.232,1.232,0,0,1-.012-2.464H75.6a1.232,1.232,0,1,1,0,2.464Z" transform="translate(-63.269 -136.217)" fill="#fff"/>
  <path id="Контур_420" data-name="Контур 420" d="M75.6,212.7a1.232,1.232,0,0,1-.012-2.464H75.6a1.232,1.232,0,1,1,0,2.464Z" transform="translate(-63.269 -192.425)" fill="#fff"/>
  <path id="Контур_421" data-name="Контур 421" d="M50.827,130.121a1.232,1.232,0,0,1-.012-2.464h.012a1.232,1.232,0,1,1,0,2.464Z" transform="translate(-42.191 -122.164)" fill="#fff"/>
  <path id="Контур_422" data-name="Контур 422" d="M50.827,196.186a1.232,1.232,0,0,1-.012-2.464h.012a1.232,1.232,0,1,1,0,2.464Z" transform="translate(-42.191 -178.373)" fill="#fff"/>
  <path id="Контур_423" data-name="Контур 423" d="M50.827,163.154a1.232,1.232,0,0,1-.012-2.464h.012a1.232,1.232,0,1,1,0,2.464Z" transform="translate(-42.191 -150.269)" fill="#f2f2f6"/>
  <path id="Контур_424" data-name="Контур 424" d="M50.827,229.218a1.232,1.232,0,0,1-.012-2.464h.012a1.232,1.232,0,1,1,0,2.464Z" transform="translate(-42.191 -206.477)" fill="#f2f2f6"/>
  <path id="Контур_425" data-name="Контур 425" d="M125.15,113.6a1.232,1.232,0,0,1-.012-2.464h.012a1.232,1.232,0,1,1,0,2.464Z" transform="translate(-105.426 -108.112)" fill="#fff"/>
  <path id="Контур_426" data-name="Контур 426" d="M125.15,179.67a1.232,1.232,0,0,1-.012-2.464h.012a1.232,1.232,0,1,1,0,2.464Z" transform="translate(-105.426 -164.321)" fill="#fff"/>
  <path id="Контур_427" data-name="Контур 427" d="M125.15,245.734a1.232,1.232,0,0,1-.012-2.464h.012a1.232,1.232,0,1,1,0,2.464Z" transform="translate(-105.426 -220.529)" fill="#fff"/>
  <path id="Контур_428" data-name="Контур 428" d="M125.15,146.638a1.232,1.232,0,0,1-.012-2.464h.012a1.232,1.232,0,1,1,0,2.464Z" transform="translate(-105.426 -136.217)" fill="#f2f2f6"/>
  <path id="Контур_429" data-name="Контур 429" d="M125.15,212.7a1.232,1.232,0,0,1-.012-2.464h.012a1.232,1.232,0,1,1,0,2.464Z" transform="translate(-105.426 -192.425)" fill="#f2f2f6"/>
  <path id="Контур_430" data-name="Контур 430" d="M100.375,130.121a1.232,1.232,0,0,1-.012-2.464h.012a1.232,1.232,0,1,1,0,2.464Z" transform="translate(-84.347 -122.164)" fill="#f2f2f6"/>
  <path id="Контур_431" data-name="Контур 431" d="M100.375,196.186a1.232,1.232,0,0,1-.012-2.464h.012a1.232,1.232,0,1,1,0,2.464Z" transform="translate(-84.347 -178.373)" fill="#f2f2f6"/>
  <path id="Контур_432" data-name="Контур 432" d="M100.375,163.154a1.232,1.232,0,0,1-.012-2.464h.012a1.232,1.232,0,1,1,0,2.464Z" transform="translate(-84.347 -150.269)" fill="#fff"/>
  <path id="Контур_433" data-name="Контур 433" d="M100.375,229.218a1.232,1.232,0,0,1-.012-2.464h.012a1.232,1.232,0,1,1,0,2.464Z" transform="translate(-84.347 -206.477)" fill="#fff"/>
  <path id="Контур_434" data-name="Контур 434" d="M174.617,113.6a1.232,1.232,0,0,1-.012-2.464h.012a1.232,1.232,0,1,1,0,2.464Z" transform="translate(-147.513 -108.112)" fill="#f2f2f6"/>
  <path id="Контур_435" data-name="Контур 435" d="M174.617,179.67a1.232,1.232,0,0,1-.012-2.464h.012a1.232,1.232,0,1,1,0,2.464Z" transform="translate(-147.513 -164.321)" fill="#f2f2f6"/>
  <path id="Контур_436" data-name="Контур 436" d="M174.617,245.734a1.232,1.232,0,0,1-.012-2.464h.012a1.232,1.232,0,1,1,0,2.464Z" transform="translate(-147.513 -220.529)" fill="#f2f2f6"/>
  <path id="Контур_437" data-name="Контур 437" d="M174.617,146.638a1.232,1.232,0,0,1-.012-2.464h.012a1.232,1.232,0,1,1,0,2.464Z" transform="translate(-147.513 -136.217)" fill="#fff"/>
  <path id="Контур_438" data-name="Контур 438" d="M174.617,212.7a1.232,1.232,0,0,1-.012-2.464h.012a1.232,1.232,0,1,1,0,2.464Z" transform="translate(-147.513 -192.425)" fill="#fff"/>
  <path id="Контур_439" data-name="Контур 439" d="M149.843,130.121a1.232,1.232,0,0,1-.012-2.464h.012a1.232,1.232,0,1,1,0,2.464Z" transform="translate(-126.435 -122.164)" fill="#fff"/>
  <path id="Контур_440" data-name="Контур 440" d="M149.843,196.186a1.232,1.232,0,0,1-.012-2.464h.012a1.232,1.232,0,1,1,0,2.464Z" transform="translate(-126.435 -178.373)" fill="#fff"/>
  <path id="Контур_441" data-name="Контур 441" d="M149.843,163.154a1.232,1.232,0,0,1-.012-2.464h.012a1.232,1.232,0,1,1,0,2.464Z" transform="translate(-126.435 -150.269)" fill="#f2f2f6"/>
  <path id="Контур_442" data-name="Контур 442" d="M149.843,229.218a1.232,1.232,0,0,1-.012-2.464h.012a1.232,1.232,0,1,1,0,2.464Z" transform="translate(-126.435 -206.477)" fill="#f2f2f6"/>
  <path id="Контур_443" data-name="Контур 443" d="M199.472,130.121a1.232,1.232,0,0,1-.012-2.464h.012a1.232,1.232,0,1,1,0,2.464Z" transform="translate(-168.66 -122.164)" fill="#f2f2f6"/>
  <path id="Контур_444" data-name="Контур 444" d="M199.472,196.186a1.232,1.232,0,0,1-.012-2.464h.012a1.232,1.232,0,1,1,0,2.464Z" transform="translate(-168.66 -178.373)" fill="#f2f2f6"/>
  <path id="Контур_445" data-name="Контур 445" d="M199.472,163.154a1.232,1.232,0,0,1-.012-2.464h.012a1.232,1.232,0,1,1,0,2.464Z" transform="translate(-168.66 -150.269)" fill="#fff"/>
  <path id="Контур_446" data-name="Контур 446" d="M199.472,229.218a1.232,1.232,0,0,1-.012-2.464h.012a1.232,1.232,0,1,1,0,2.464Z" transform="translate(-168.66 -206.477)" fill="#fff"/>
  <path id="Контур_447" data-name="Контур 447" d="M3,331.788l2.575,2.035H78.935v-7.04H5.016Z" transform="translate(-2.552 -291.584)" fill="#f2f2f6"/>
  <path id="Контур_448" data-name="Контур 448" d="M0,326.782v7.04H3.023a7.366,7.366,0,0,1-.558-2.816v-4.224H0Z" transform="translate(0 -291.583)" fill="#e1e1e6"/>
</svg>
