<svg xmlns="http://www.w3.org/2000/svg" width="75.216" height="49.279" viewBox="0 0 75.216 49.279">
  <g id="uzbekistan" transform="translate(0 -88.276)">
    <path id="Контур_449" data-name="Контур 449" d="M75.215,104.7H0V89.573a1.3,1.3,0,0,1,1.3-1.3H73.919a1.3,1.3,0,0,1,1.3,1.3V104.7Z" transform="translate(0 0)" fill="#82afff"/>
    <path id="Контур_450" data-name="Контур 450" d="M73.919,328.335H1.3a1.3,1.3,0,0,1-1.3-1.3V311.909H75.215v15.129A1.3,1.3,0,0,1,73.919,328.335Z" transform="translate(0 -190.78)" fill="#73af00"/>
    <rect id="Прямоугольник_98" data-name="Прямоугольник 98" width="75.215" height="16.425" transform="translate(0 104.702)" fill="#f5f5f5"/>
    <g id="Сгруппировать_71" data-name="Сгруппировать 71" transform="translate(0 103.243)">
      <rect id="Прямоугольник_99" data-name="Прямоугольник 99" width="75.215" height="2.048" transform="translate(0 0)" fill="#ff4b55"/>
      <rect id="Прямоугольник_100" data-name="Прямоугольник 100" width="75.215" height="2.048" transform="translate(0 17.295)" fill="#ff4b55"/>
    </g>
    <g id="Сгруппировать_72" data-name="Сгруппировать 72" transform="translate(8.31 90.024)">
      <path id="Контур_451" data-name="Контур 451" d="M64.929,110.736a4.8,4.8,0,1,1,0-9.6h.03a.149.149,0,0,0,.073-.279,5.7,5.7,0,0,0-2.742-.679,5.76,5.76,0,0,0,.042,11.52,5.714,5.714,0,0,0,2.706-.68.148.148,0,0,0-.074-.279Z" transform="translate(-56.567 -100.174)" fill="#f5f5f5"/>
      <path id="Контур_452" data-name="Контур 452" d="M133.4,162.688l-.215.644-.679.005a.091.091,0,0,0-.054.165l.546.4-.2.647a.091.091,0,0,0,.14.1l.552-.395.552.395a.091.091,0,0,0,.14-.1l-.2-.647.546-.4a.091.091,0,0,0-.054-.165l-.679-.005-.215-.644A.091.091,0,0,0,133.4,162.688Z" transform="translate(-121.272 -153.451)" fill="#f5f5f5"/>
      <path id="Контур_453" data-name="Контур 453" d="M165.941,162.688l-.215.644-.679.005a.091.091,0,0,0-.054.165l.546.4-.2.647a.091.091,0,0,0,.14.1l.552-.395.552.395a.091.091,0,0,0,.14-.1l-.2-.647.546-.4a.091.091,0,0,0-.054-.165l-.679-.005-.215-.644A.091.091,0,0,0,165.941,162.688Z" transform="translate(-149.034 -153.451)" fill="#f5f5f5"/>
      <path id="Контур_454" data-name="Контур 454" d="M198.483,162.688l-.215.644-.679.005a.091.091,0,0,0-.054.165l.546.4-.2.647a.091.091,0,0,0,.14.1l.552-.395.552.395a.091.091,0,0,0,.14-.1l-.2-.647.546-.4a.091.091,0,0,0-.054-.165l-.679-.005-.215-.644A.091.091,0,0,0,198.483,162.688Z" transform="translate(-176.796 -153.451)" fill="#f5f5f5"/>
      <path id="Контур_455" data-name="Контур 455" d="M231.025,162.688l-.215.644-.679.005a.091.091,0,0,0-.054.165l.546.4-.2.647a.091.091,0,0,0,.14.1l.552-.395.552.395a.091.091,0,0,0,.14-.1l-.2-.647.546-.4a.091.091,0,0,0-.054-.165l-.679-.005-.215-.644A.091.091,0,0,0,231.025,162.688Z" transform="translate(-204.557 -153.451)" fill="#f5f5f5"/>
      <path id="Контур_456" data-name="Контур 456" d="M263.568,162.688l-.215.644-.679.005a.091.091,0,0,0-.054.165l.546.4-.2.647a.091.091,0,0,0,.14.1l.552-.395.552.395a.091.091,0,0,0,.14-.1l-.2-.647.546-.4a.091.091,0,0,0-.054-.165l-.679-.005-.215-.644A.092.092,0,0,0,263.568,162.688Z" transform="translate(-232.319 -153.451)" fill="#f5f5f5"/>
      <path id="Контур_457" data-name="Контур 457" d="M165.941,132.315l-.215.644-.679.005a.091.091,0,0,0-.054.165l.546.4-.2.647a.091.091,0,0,0,.14.1l.552-.395.552.395a.092.092,0,0,0,.14-.1l-.2-.647.546-.4a.091.091,0,0,0-.054-.165l-.679-.005-.215-.644A.091.091,0,0,0,165.941,132.315Z" transform="translate(-149.034 -127.54)" fill="#f5f5f5"/>
      <path id="Контур_458" data-name="Контур 458" d="M198.483,132.315l-.215.644-.679.005a.091.091,0,0,0-.054.165l.546.4-.2.647a.091.091,0,0,0,.14.1l.552-.395.552.395a.092.092,0,0,0,.14-.1l-.2-.647.546-.4a.091.091,0,0,0-.054-.165l-.679-.005-.215-.644A.091.091,0,0,0,198.483,132.315Z" transform="translate(-176.796 -127.54)" fill="#f5f5f5"/>
      <path id="Контур_459" data-name="Контур 459" d="M231.025,132.315l-.215.644-.679.005a.091.091,0,0,0-.054.165l.546.4-.2.647a.091.091,0,0,0,.14.1l.552-.395.552.395a.091.091,0,0,0,.14-.1l-.2-.647.546-.4a.091.091,0,0,0-.054-.165l-.679-.005-.215-.644A.091.091,0,0,0,231.025,132.315Z" transform="translate(-204.557 -127.54)" fill="#f5f5f5"/>
      <path id="Контур_460" data-name="Контур 460" d="M263.568,132.315l-.215.644-.679.005a.091.091,0,0,0-.054.165l.546.4-.2.647a.091.091,0,0,0,.14.1l.552-.395.552.395a.091.091,0,0,0,.14-.1l-.2-.647.546-.4a.091.091,0,0,0-.054-.165l-.679-.005-.215-.644A.091.091,0,0,0,263.568,132.315Z" transform="translate(-232.319 -127.54)" fill="#f5f5f5"/>
      <path id="Контур_461" data-name="Контур 461" d="M198.483,162.688l-.215.644-.679.005a.091.091,0,0,0-.054.165l.546.4-.2.647a.091.091,0,0,0,.14.1l.552-.395.552.395a.091.091,0,0,0,.14-.1l-.2-.647.546-.4a.091.091,0,0,0-.054-.165l-.679-.005-.215-.644A.091.091,0,0,0,198.483,162.688Z" transform="translate(-176.796 -153.451)" fill="#f5f5f5"/>
      <path id="Контур_462" data-name="Контур 462" d="M198.483,101.942l-.215.644-.679.005a.091.091,0,0,0-.054.165l.546.4-.2.647a.091.091,0,0,0,.14.1l.552-.395.552.395a.091.091,0,0,0,.14-.1l-.2-.647.546-.4a.091.091,0,0,0-.054-.165l-.679-.005-.215-.644A.091.091,0,0,0,198.483,101.942Z" transform="translate(-176.796 -101.629)" fill="#f5f5f5"/>
      <path id="Контур_463" data-name="Контур 463" d="M231.025,162.688l-.215.644-.679.005a.091.091,0,0,0-.054.165l.546.4-.2.647a.091.091,0,0,0,.14.1l.552-.395.552.395a.091.091,0,0,0,.14-.1l-.2-.647.546-.4a.091.091,0,0,0-.054-.165l-.679-.005-.215-.644A.091.091,0,0,0,231.025,162.688Z" transform="translate(-204.557 -153.451)" fill="#f5f5f5"/>
      <path id="Контур_464" data-name="Контур 464" d="M263.568,162.688l-.215.644-.679.005a.091.091,0,0,0-.054.165l.546.4-.2.647a.091.091,0,0,0,.14.1l.552-.395.552.395a.091.091,0,0,0,.14-.1l-.2-.647.546-.4a.091.091,0,0,0-.054-.165l-.679-.005-.215-.644A.092.092,0,0,0,263.568,162.688Z" transform="translate(-232.319 -153.451)" fill="#f5f5f5"/>
      <path id="Контур_465" data-name="Контур 465" d="M231.025,101.942l-.215.644-.679.005a.091.091,0,0,0-.054.165l.546.4-.2.647a.091.091,0,0,0,.14.1l.552-.395.552.395a.091.091,0,0,0,.14-.1l-.2-.647.546-.4a.091.091,0,0,0-.054-.165l-.679-.005-.215-.644A.091.091,0,0,0,231.025,101.942Z" transform="translate(-204.557 -101.629)" fill="#f5f5f5"/>
      <path id="Контур_466" data-name="Контур 466" d="M263.568,101.942l-.215.644-.679.005a.091.091,0,0,0-.054.165l.546.4-.2.647a.091.091,0,0,0,.14.1l.552-.395.552.395a.091.091,0,0,0,.14-.1l-.2-.647.546-.4a.091.091,0,0,0-.054-.165l-.679-.005-.215-.644A.092.092,0,0,0,263.568,101.942Z" transform="translate(-232.319 -101.629)" fill="#f5f5f5"/>
    </g>
  </g>
</svg>
