<svg xmlns="http://www.w3.org/2000/svg" width="70.44" height="63.396" viewBox="0 0 70.44 63.396">
  <path id="work" d="M66.918,10.566H51.656V5.87A5.877,5.877,0,0,0,45.786,0H24.654a5.877,5.877,0,0,0-5.87,5.87v4.7H3.522A3.522,3.522,0,0,0,0,14.088V40.221a3.537,3.537,0,0,0,2.348,3.314V59.874A3.522,3.522,0,0,0,5.87,63.4h58.7a3.522,3.522,0,0,0,3.522-3.522V43.536a3.539,3.539,0,0,0,2.348-3.316V14.088a3.522,3.522,0,0,0-3.522-3.522ZM21.132,5.87a3.522,3.522,0,0,1,3.522-3.522H45.786A3.522,3.522,0,0,1,49.308,5.87v4.7H46.96V5.87A1.174,1.174,0,0,0,45.786,4.7H24.654A1.174,1.174,0,0,0,23.48,5.87v4.7H21.132Zm23.48,4.7H25.828V7.044H44.612ZM65.744,59.874a1.174,1.174,0,0,1-1.174,1.174H5.87A1.174,1.174,0,0,1,4.7,59.874V43.939L30.524,47.5v2.981A3.522,3.522,0,0,0,34.046,54h2.348a3.522,3.522,0,0,0,3.522-3.522V47.5l25.828-3.562ZM37.568,50.482a1.174,1.174,0,0,1-1.174,1.174H34.046a1.174,1.174,0,0,1-1.174-1.174V43.438a1.174,1.174,0,0,1,1.174-1.174h2.348a1.174,1.174,0,0,1,1.174,1.174ZM68.092,40.221a1.174,1.174,0,0,1-1.009,1.164l-.326.045-26.841,3.7V43.438a3.522,3.522,0,0,0-3.522-3.522H34.046a3.522,3.522,0,0,0-3.522,3.522v1.693L3.359,41.384a1.174,1.174,0,0,1-1.011-1.164V14.088a1.174,1.174,0,0,1,1.174-1.174h63.4a1.174,1.174,0,0,1,1.174,1.174Zm0,0"/>
</svg>
