<svg xmlns="http://www.w3.org/2000/svg" width="504.848" height="323.193" viewBox="0 0 504.848 323.193">
  <g id="Сгруппировать_23" data-name="Сгруппировать 23" transform="translate(5037.953 1964.784)">
    <path id="Контур_91" data-name="Контур 91" d="M.5.5H396.449V235.548H.5Z" transform="translate(-4987.107 -1877.723)" fill="rgba(255,255,255,0)" stroke="rgba(0,0,0,0)" stroke-miterlimit="10" stroke-width="1"/>
    <path id="Контур_92" data-name="Контур 92" d="M1637.806,1036.073l.942-.281.2,1.582,4.143-.908,4.379.149,3.2.172,3.626-3.913,3.948-3.728,3.346-3.6,1.009,1.994.719,4.6-2.706.023-.432,3.771.937.8-2.4,1.135-.015,2.351-1.543,2.372-.138,2.3-1.067,1.2-15.915-2.878-2.03-5.816Z" transform="translate(-6613.568 -2779.815)" fill="#5a5a5a" stroke="#fff" stroke-miterlimit="10" stroke-width="1"/>
    <path id="Контур_93" data-name="Контур 93" d="M1707.716,935.507l5.4,2.455,3.994-.861,1.1-2.94,4.179-.98,2.984-1.987,1.057-5.259,4.462-1.281.831-2.364,2.5,1.777,1.6.206,2.948.043,3.994,1.4,1.618.806,3.831-2.126,1.786,1.278,1.707-3.038,3.165.14.814-.978.561-2.7,2.279-2.338,2.867,1.53-.576,2.047,1.6.319-.493,5.582,2.094,2.159,1.847-1.384,2.349-.655,3.3-2.967,3.646.489,5.461.011.942,1.9-3.082.74-2.691,1.218-6.077.765-5.686,1.38-3.089,2.848,1.25,2.757.606,3.218-2.638,2.7.221,2.459-1.456,2.292-5.036-.2,2.081,4.19-3.369,1.594-2.249,3.784.291,3.739-2.068,1.745-1.958-.578-4.047.808-.58,1.726-3.943-.009-2.949,3.48-.187,5.193-6.879,2.521-3.688-.532-1.072,1.326-3.165-.771-5.3.9L1705.935,972l4.8-5.533-.434-3.958-4.011-1.042-.415-3.937-1.734-4.993,2.266-3.45-2.306-.935,1.454-4.628Z" transform="translate(-6632.482 -2748.781)" fill="#5a5a5a" stroke="#fff" stroke-miterlimit="10" stroke-width="1"/>
    <path id="Контур_95" data-name="Контур 95" d="M1578.566,891.3l7.357-1.093,1.1,1.839,2.017,1.208L1587.972,895l2.82,2.375-1.492,2.194,2.247,1.866,2.377,1.12.117,4.713-1.917.2-2.162-3.928.024-1.052-2.34.015-1.567-1.837-1.1.187-2.086-2.007-3.937-1.715.51-3.374Z" transform="translate(-6596.667 -2741.204)" fill="#5a5a5a" stroke="#fff" stroke-miterlimit="10" stroke-width="1"/>
    <path id="Контур_100" data-name="Контур 100" d="M1588.64,898.94l1.569,1.837,2.34-.015-.025,1.054,2.162,3.928-3.631-.9-2.676-3.137-.84-2.58Zm12.556-10.259,2.344.478.908-1.785,3.161-2.844,2.784,3.711,2.693,4.953,2.468.325,1.63,1.866-4.362.555-.92,5.331-.91,2.385-1.941,1.584.142,3.341-1.318.336-3.3-3.529,1.826-3.359-1.565-2.005-1.985.506-6.245,5.016-.117-4.713-2.377-1.12-2.247-1.866,1.494-2.194-2.821-2.376,1.065-1.745-2.017-1.209-1.1-1.839,1.3-1.146,3.945,2.017,2.853.416.721-.821-2.608-3.809,1.375-.976,1.488.238Z" transform="translate(-6599.227 -2739.48)" fill="#5a5a5a" stroke="#fff" stroke-miterlimit="10" stroke-width="1"/>
    <path id="Контур_102" data-name="Контур 102" d="M1932.539,1047.777l-.11,4.064-1.847-.855.345,4.538-1.514-2.938-.3-2.88-1.009-2.732-2.211-3.316-4.877-.228.481,2.351-1.662,3.161-2.253-1.15-.769,1.031-1.5-.618-2.049-.508-.825-4.693-1.833-4.308.9-3.473-3.257-1.547,1.174-2.113,3.31-2.166-3.822-3.088,1.869-3.979,4.194,2.536,2.529.289.467,4.06,5.038.8,4.912-.087,3.052.993-2.44,4.9-2.37.334-1.634,3.275,2.9,2.969.865-3.663,1.462-.019Z" transform="translate(-6690.722 -2778.899)" fill="#5a5a5a" stroke="#fff" stroke-miterlimit="10" stroke-width="1"/>
    <path id="Контур_112" data-name="Контур 112" d="M1928.91,1010.108l2.156,1.9-.372,3.635-4.319.176-4.472-.4-3.327.923-4.813-2.241-.113-1.188,3.5-4.421,2.861-1.516,3.782,1.384,2.8.146Z" transform="translate(-6692.264 -2774.519)" fill="#5a5a5a" stroke="#fff" stroke-miterlimit="10" stroke-width="1"/>
    <path id="Контур_124" data-name="Контур 124" d="M1995.625,990.742l-4.575,2.666-4.342-1.718-.153-4.787,2.61-2.532,5.784-1.569,3.044.134,1.184,2.136-2.326,2.457Zm91.7-203.038,9.215,2.6,6.271,5.731,2.143,7.45,8.046.009,4.591-3.11,8.751-2.34-2.784,7.1-2.057,2.855-1.814,8.426-3.562,7.342-6.424-1.328-4.545,2.644,1.4,6.339-.763,8.6-2.7.195.032,3.643-3.42-4.237-2.1,4.022-8.177,3.069.827,3.729-4.578-.257-2.514-2.213-3.639,4.993-5.835,3.747-4.311,4.432-7.4,2-3.9,3.189-5.7,1.852,2.814-3.15-1.108-2.664,4.194-4.634-2.8-3.645-4.615,2.459-5.977,4.8-3.263,4.419-5.193.327-2.7,3.165,2.793,4.549,4.332,1.1.179,2.989,4.189,1.936,5.935-4.745,4.7,2.595,3.423.176.86,3.467-7.5,1.839-2.476,3.535-5.15,3.263-2.718,4.519,5.7,3.52,2.081,6.245,3.221,5.752,3.6,4.776-.087,4.581-3.324,1.675,1.268,3.257,3.116,1.888-.814,4.927-1.345,4.755-2.959.536-3.866,6.434-4.288,7.716-4.917,6.942-7.28,5.321-7.365,4.821-5.966.655-3.237,2.531-1.831-1.849-3,2.829-7.4,2.84-5.6.867-1.807,5.95-2.934.329-1.388-4.083,1.254-2.185-7.1-1.811-2.5.922-5.331-1.469-2.521-2.308.837-3.282-4.84-1.044-2.553-2.149-4.513,3.05-5.148.659-4.222-.03-2.842,1.392-2.744.835.8,6.483-2.823-.155-.476-1.328-.161-2.342-3.884,1.65-2.292-1.042-3.931-2.13,1.541-4.734-3.352-1.108-1.263-5.289-5.589.956.636-6.864,5.014-4.872.214-4.846-.157-4.528-2.311-1.416-1.769-3.512-3.1.444-5.708-.9,1.788-2.519-2.481-3.75-3.775,2.542-4.442-1.482-6.1,3.833-4.819,4.447-4.272.746-2.319-1.6-2.795-.145-3.784-1.382-2.861,1.516-3.5,4.421-.444-4.685-3.229,1.256-6.175-.583-5.99-1.369-4.3-2.631-4.115-1.184-1.777-2.895-2.974-.867-5.346-3.954-4.245-1.875-2.194,1.46-7.357-4.277-5.2-3.9-1.484-6.853,3.8.84.174-3.2-2.105-3.225.536-5.182-5.692-7.533-8.707-2.625-1.567-5.025L1809.353,880l-.942-1.9-.795-3.8.185-2.608-3.216-1.533-1.739.678-1.343-6.277,1.507-1.565-.731-1.605,5.055-3.259,3.66-1.356,5.6.929,2-4.445,6.792-.831,1.887-2.791,8.345-3.835.744-1.611-.423-4.088,3.633-1.879-4.766-12.754,10.49-2.987,2.712-1.673,3.818-13.713,10.505,2.555,2.946-3.512.253-7.9,4.4-.746,4.03-5.346,2.073-.665,1.39,5.609,4.449,4.211,7.552,2.955,3.654,6.268-2.038,8.928,1.905,3.265,6.292,1.28,7.13,1.042,6.4,4.623,3.271.818,2.412,6.738,3.108,4.285,5.837-.166,10.928,1.609,7.042-1L1950.6,843l7.833,4.326,6.407-.006,2.344,2.2,6.165-3.8,8.552-2.478,7.935-.272,6.186-2.525,3.8-3.873,3.707-2.449-.857-2.417-1.692-2.831,2.782-4.793,2.978.676,5.442,1.511,5.276-3.968,8.073-2.919,3.881-5.027,3.728-2.183,7.689-1.022,4.179.867.58-2.744-4.8-5.452-4.249-2.517-4.069,2.9-5.223-1.222-3,1-1.365-3.221,3.741-7.984,2.577-6.132,6.354,3.082,7.463-5.172-.049-3.643,4.78-8.923,2.946-2.738-.066-4.762-2.9-2.068,4.371-4.368,6.58-1.6,7.021-.24,7.924,2.632,4.649,3.231,3.272,8.707,1.984,3.658,1.845,5.157Z" transform="translate(-6660.27 -2702.98)" fill="#5a5a5a" stroke="#fff" stroke-miterlimit="10" stroke-width="1"/>
    <path id="Контур_148" data-name="Контур 148" d="M1560.158,881.61l.789-3.021-1.324-4.866-3.059-2.651-2.935-.829-1.939-2.221.646-.859,4.475,1.242,7.8,1.173,7.208,3.46.929,1.333,3.21-1.128,4.938,1.5,1.622,2.927,3.327,1.645-1.375.974,2.608,3.809-.721.819-2.855-.415-3.945-2.017-1.3,1.146-7.357,1.093-5.1-3.45Z" transform="translate(-6589 -2734.631)" fill="#5a5a5a" stroke="#fff" stroke-miterlimit="10" stroke-width="1"/>
    <path id="Контур_166" data-name="Контур 166" d="M1811.914,944.406l5.692,7.533-.536,5.18,2.105,3.225-.174,3.2-3.8-.84,1.484,6.855,5.2,3.9,7.359,4.277-3.362,2.759-2.054,5.648,5.129,2.27,4.993,2.931,6.906,3.337,7.257.766,3.054,3.008,4.092.559,6.369,1.373,4.409-.1.606-2.332-.7-3.76.41-2.561,3.229-1.256.444,4.685.114,1.188,4.813,2.241,3.327-.923,4.472.4,4.319-.176.372-3.635-2.156-1.9,4.271-.744,4.819-4.449,6.1-3.833,4.442,1.482,3.775-2.542,2.481,3.748-1.788,2.521,5.71.893.4,2.264-1.856,1.091.436,3.65-3.784-1.071-6.855,4.083.161,3.359-2.921,4.9-.27,2.829-2.361,4.763-4.137-1.314-.206,5.945-1.2,1.947.559,2.419-2.612,1.348-2.789-9.062-1.462.019-.865,3.663-2.9-2.969,1.633-3.274,2.37-.334,2.44-4.9-3.052-.993-4.912.087-5.038-.8-.466-4.06-2.528-.289-4.194-2.536-1.869,3.979,3.822,3.087-3.31,2.166-1.175,2.113,3.258,1.547-.9,3.473,1.833,4.307.825,4.693-.759,2.07-3.6-.07-6.526,1.175.3,4.245-2.827,3.324-7.619,3.765-5.926,6.545-3.981,3.49-5.276,3.61-.008,2.527-2.638,1.352-4.77,1.962-2.474.291-1.586,4.164,1.1,7.068.281,4.487-2.243,5.121-.024,9.111-2.74.259-2.41,4.073,1.611,1.758-4.829,1.509-1.782,3.618-2.125,1.528-5.012-4.965-2.451-7.472-2.032-5.4-1.856-2.542-2.812-5.17-1.314-6.764-.916-3.391-4.815-7.493-2.193-10.662-1.584-7.1.019-6.777-1.027-5.276-7.7,3.376-3.732-.674-6.917-6.857,2.546-2.057-1.563-2.24-6.211-4.863,3.526-3.847,11.651.015-1.05-4.98-2.976-2.957-.6-4.515-3.465-2.648,5.835-6.222,6.148.453,5.539-6.281,3.318-6.139,5.142-6.135-.083-4.4,4.517-3.594-4.275-3.086-1.839-4.256-1.875-5.563,2.595-2.759,8.033,1.564,5.9-.952Z" transform="translate(-6648.646 -2756.667)" fill="#5a5a5a" stroke="#fff" stroke-miterlimit="10" stroke-width="1"/>
    <path id="Контур_168" data-name="Контур 168" d="M1634.419,922.032l4.653-1.282,3.765-3.809,3.541.194,2.324-1.248,3.766.617,5.855,3.382,4.228.725,6.051,5.845,3.947.236.465,5.488-2.158,8.02-1.454,4.628,2.306.935-2.266,3.45,1.734,4.993.415,3.937,4.011,1.042.434,3.958-4.8,5.533,2.619,3.184,2.132,3.637,5.063,2.636.145,5.244,2.534.959.436,2.723-7.637,3.038-1.994,6.789-9.961-1.758-5.773-1.341-5.975-.759-2.26-7.206-2.534-1.05-4.068,1.057-5.34,2.853-6.472-1.954-5.344-4.551-5.1-1.694-3.537-5.678-3.907-8.069-2.85.988-3.365-2.019-1.977,2.377-2.929-3.2-.053-3.265-1.69,0,.867-4.468-2.725-4.726-6.487-3.435-3.667-6.007,1.228-4.982,2.664-2.219-.4-3.777-3.473-1.953-3.429-7.831-2.9-5.327,1.037-2.077-1.652-7.765,3.625-1.949.839,2.578,2.676,3.137,3.631.9,1.917-.2,6.245-5.016,1.984-.5,1.566,2-1.826,3.359,3.3,3.529,1.316-.336,1.675,4.932,5.021,1.384,3.679,3.316,7.527,1.137,8.269-1.745Z" transform="translate(-6597.78 -2745.454)" fill="#5a5a5a" stroke="#fff" stroke-miterlimit="10" stroke-width="1"/>
    <path id="Контур_175" data-name="Контур 175" d="M1778.234,877.171l1.186-3.135,3.484-1.014,8.713,2.472.821-4.243,3.006-1.5,7.54,3.038,1.924-.8,8.779.2,7.856.753,2.657,2.578,3.261,1.048-.744,1.611-8.343,3.837-1.886,2.791-6.793.831-2,4.445-5.6-.929-3.66,1.356-5.055,3.259.731,1.605-1.507,1.566-10.012,1.033-6.539-2.217-5.743.531.5-3.958,5.763,1.152,1.938-2.126,4.028.68,6.781-4.995-6.275-3.69-3.771,1.751-3.909-2.646,4.445-4.587Z" transform="translate(-6651.369 -2735.369)" fill="#5a5a5a" stroke="#fff" stroke-miterlimit="10" stroke-width="1"/>
    <path id="Контур_176" data-name="Контур 176" d="M2020,1137.161l-2.153-2.791-2.678-5.55-1.254-6.515,3.392-4.5,6.845-1.038,4.963.78,4.37,2.126,2.4-3.743,4.691,2,1.227,3.615-.651,6.47-8.9,4.137,2.325,3.25-5.557.389-4.583,2.156Z" transform="translate(-6720.868 -2805.601)" fill="#5a5a5a" stroke="#fff" stroke-miterlimit="10" stroke-width="1"/>
    <path id="Контур_177" data-name="Контур 177" d="M2210.033,877.154l.74,1.248-2.011-.427-2.3,2.408-1.581,2.406.2,5.038-2.736,1.541-.943,1.224-2,2.045-3.526,1.135-2.3,1.845-.166,2.961-.617.753,2.107,1.1,3,2.969-.763,1.63-2.255.444-3.741.325-2.064,3.021-2.362-.238-.332.6-2.57-1.269-.64,1.254-1.55.553-.187-1.256-1.371-.612-1.424-1.067,1.448-2.959,1.248-.793-.47-1.235,1.343-3.665-.346-1.118-3.091-.744-2.5-1.841,4.311-4.432,5.835-3.746,3.639-4.993,2.513,2.213,4.576.257-.825-3.73,8.177-3.067,2.1-4.024Z" transform="translate(-6767.191 -2736.272)" fill="#5a5a5a" stroke="#fff" stroke-miterlimit="10" stroke-width="1"/>
    <path id="Контур_178" data-name="Контур 178" d="M2201.82,915.574l4.57,7.9,1.31,4.287.042,7.525-2,3.554-4.795,1.235-4.232,2.659-4.77.548-.591-3.49.98-4.846-2.34-6.8,3.934-1.109-3.629-5.674.332-.6,2.362.238,2.064-3.021,3.741-.325,2.254-.444Z" transform="translate(-6771.104 -2748.442)" fill="#5a5a5a" stroke="#fff" stroke-miterlimit="10" stroke-width="1"/>
    <path id="Контур_181" data-name="Контур 181" d="M1729.627,837.8l-3.036,1.316-6.983,4.927-2.317,5-1.972.045-1.452-3.307-6.732-.227-1.078-5.776-2.579-.049.395-7.178-6.337-5.3-9.081.57-6.209,1.059-5.057-6.606-4.332-2.8-8.207-5.357-.99-.653-13.63,4.432.21,26.677-2.717.344-3.7-5.537-3.579-1.994-6.011,1.482-2.34,2.361-.3-1.728,1.3-2.97-1.01-2.5-6.135-2.457-2.391-6.541-2.923-1.86-.176-2.41,5.15.7.2-5.444,4.5-1.22,4.627,1.122.954-7.378-.944-4.747-5.3.374-4.5-1.886-6.13,3.393-4.94,1.607-2.689-1.239.538-3.969-3.374-5.212-3.93.219-4.494-5.357,3.055-6.071-1.547-1.65,4.226-9.008,5.444,4.781.659-6.03,10.93-9.157,8.271-.221,11.67,5.858,6.269,3.382,5.618-3.527,8.394-.168,6.772,4.328,1.539-2.474,7.437.361,1.327-3.977-8.581-5.848,5.082-4.2-.991-2.368,5.083-2.274-3.822-6.058,2.427-3.055,19.813-3.14,2.585-2.247,13.249-3.382,4.76-3.837,9.516,2,1.667,9.465,5.527-2.2,6.8,3.08-.438,4.878,5.078-.506,13.269-8.486-1.937,2.84,6.756,6.91,11.831,21.86,2.821-4.406,7.295,4.844,7.608-2.153,2.923,1.509,2.547,4.808,3.7,1.6,2.255,3.48,6.821-1.093,2.808,4.974-4.03,5.346-4.4.744-.251,7.9-2.946,3.512-10.5-2.555-3.82,13.713-2.71,1.673-10.49,2.987,4.766,12.754-3.633,1.879.423,4.088-3.261-1.048-2.657-2.578-7.856-.753-8.779-.2-1.924.8-7.54-3.038-3.006,1.5-.822,4.243-8.713-2.472-3.484,1.014Z" transform="translate(-6602.762 -2696)" fill="#5a5a5a" stroke="#fff" stroke-miterlimit="10" stroke-width="1"/>
    <path id="Контур_182" data-name="Контур 182" d="M2024.395,1100.037l1.724-2.449.236-4.613-4.286-4.772-.331-5.429-4.028-4.49-4-.38-1.067,1.926-3.1.16-1.586-.976-5.58,3.3-.125-4.959,1.3-5.861-3.576-.257-.3-3.361-2.291-1.732,1.127-2.07,4.506-3.671.476,1.328,2.823.153-.8-6.483,2.744-.835,3.093,4.487,2.377,5.131,6.519.043,2.053,4.895-3.384,1.465-1.52,2.007,6.345,3.327,4.4,6.543,3.339,4.849,4.005,3.813,1.333,3.858-.963,5.438-4.691-2-2.4,3.743Z" transform="translate(-6716.151 -2788.094)" fill="#5a5a5a" stroke="#fff" stroke-miterlimit="10" stroke-width="1"/>
    <path id="Контур_184" data-name="Контур 184" d="M1857.174,1163.93l-.8,5.518-2.219,1.505-4.606,1.21-2.521-4.207-.938-7.625,2.4-8.645,3.658,2.963,2.466,3.748Z" transform="translate(-6672.99 -2815.803)" fill="#5a5a5a" stroke="#fff" stroke-miterlimit="10" stroke-width="1"/>
    <path id="Контур_197" data-name="Контур 197" d="M1977.831,1053.768l-3.088,2.428-3.739.251-2.414,6.024-2.236,1.008,2.561,4.857,3.359,4.022,2.168,3.62-1.937,4.755-1.828,1.006,1.263,2.73,3.531,4.313.606,3.022-.083,2.508,2.07,4.912-2.908,5-2.564,5.5-.51-3.969,1.626-4.105-1.781-3.18.43-5.873-2.149-2.8-1.726-6.5-.957-6.9-2.289-4.547-3.488,2.755-6.018,3.905-2.969-.487-3.28-1.284,1.824-6.806-1.1-5.174-4.151-6.411.648-2.011-3.1-.717-3.756-4.578-.346-4.538,1.847.855.11-4.064,2.612-1.348-.559-2.419,1.2-1.947.206-5.945,4.138,1.314,2.36-4.763.27-2.829,2.921-4.9-.161-3.359,6.855-4.083,3.784,1.071-.436-3.65,1.856-1.091-.4-2.264,3.1-.444,1.77,3.512,2.309,1.418.157,4.528-.213,4.847-5.013,4.872-.636,6.864,5.59-.957,1.263,5.289,3.352,1.109-1.541,4.734,3.932,2.13,2.292,1.044,3.883-1.65.161,2.342-4.506,3.671-1.127,2.069Z" transform="translate(-6699.638 -2774.425)" fill="#5a5a5a" stroke="#fff" stroke-miterlimit="10" stroke-width="1"/>
    <path id="Контур_198" data-name="Контур 198" d="M1905.777,796.391l5.582-1.4,10.1-7.062,8.052-3.909,4.606,2.555,5.523.123,3.539,3.858,5.284.295,7.656,2.058,5.148-5.727-2.151-4.91,5.484-8.8,5.931,3.533,4.806,1,6.226,2.175,1.01,6.271,7.52,3.477,5.006-1.528,6.7-1.082,5.3,1.089,5.186,3.95,3.214,4.16,4.91-.085,6.67,1.316,4.867-2.005,6.972-1.345,7.754-5.777,3.176.891,2.772,2.749,6.317-.682-2.578,6.132-3.741,7.982,1.364,3.221,3-1,5.223,1.222,4.069-2.9,4.249,2.517,4.8,5.452-.58,2.744-4.177-.869-7.691,1.022-3.726,2.183-3.881,5.027-8.073,2.92-5.276,3.967-5.442-1.511-2.978-.676-2.782,4.793,1.692,2.831.857,2.417-3.707,2.449-3.8,3.873-6.186,2.525-7.935.272-8.554,2.476-6.164,3.8-2.345-2.2-6.405.006-7.835-4.326-5.225-1.067-7.043,1-10.928-1.607-5.837.166-3.106-4.285-2.414-6.738-3.271-.818-6.4-4.623-7.13-1.042-6.292-1.282-1.905-3.265,2.038-8.926-3.652-6.268-7.552-2.955L1907.167,802Z" transform="translate(-6690.018 -2707.901)" fill="#5a5a5a" stroke="#fff" stroke-miterlimit="10" stroke-width="1"/>
    <path id="Контур_211" data-name="Контур 211" d="M1891.536,1004.355l-.41,2.561.7,3.76-.606,2.332-4.409.1-6.369-1.373-4.092-.559-3.054-3.008-7.257-.767-6.906-3.337-4.993-2.931-5.129-2.27,2.054-5.648,3.362-2.759,2.194-1.46,4.245,1.875,5.346,3.954,2.974.869,1.779,2.9,4.113,1.186,4.3,2.629,5.99,1.369Z" transform="translate(-6673.822 -2769.388)" fill="#5a5a5a" stroke="#fff" stroke-miterlimit="10" stroke-width="1"/>
    <path id="Контур_213" data-name="Контур 213" d="M1677.251,1053.144l-1.977,3.856-2.4-.295-1.1,1.337-.85,2.84.651,3.73-.5.683-2.436-.019-3.307,2.077-.516,2.7-1.212,1.167-3.293-.043-2.073,1.392.026,2.228-2.561,1.53-2.921-.519-3.541,1.854-2.447.312-1.728-3.845-4.139-9.142,15.883-5.584,3.529-11.277-2.426-4.032.138-2.3,1.543-2.372.015-2.351,2.4-1.135-.937-.8.433-3.771,2.706-.023,2.374,3.956,2.955,2.092,3.884.752,3.135,1.048,2.391,3.286,1.428,1.9,1.9.721-.011,1.271-1.928,3.384-.846,1.588Zm-13.077-27.467-.689,1.061-1.008-2,1.543-2,.655.512Z" transform="translate(-6614.458 -2779.017)" fill="#5a5a5a" stroke="#fff" stroke-miterlimit="10" stroke-width="1"/>
    <path id="Контур_219" data-name="Контур 219" d="M1782.294,929.4l3.913,3.072,1.567,5.025,8.707,2.627-5.114,5.412-5.9.952-8.033-1.563-2.595,2.759,1.875,5.563,1.839,4.256,4.275,3.086-4.517,3.594.083,4.4-5.142,6.135-3.318,6.139-5.539,6.281-6.149-.453-5.835,6.222,3.465,2.647.6,4.515,2.976,2.957,1.05,4.98-11.651-.015-3.526,3.847-3.88-1.456-1.579-4.153-4.09-4.426-9.755,1.1-8.6.108-7.455.818,1.994-6.789,7.637-3.038-.436-2.723-2.534-.959-.146-5.244-5.062-2.636-2.132-3.637-2.619-3.184,8.872,3.091,5.3-.9,3.165.771,1.073-1.326,3.688.532,6.879-2.521.187-5.193,2.95-3.48,3.943.009.58-1.726,4.047-.808,1.958.578,2.068-1.745-.291-3.739,2.249-3.784,3.369-1.594-2.081-4.19,5.036.2,1.456-2.292-.221-2.459,2.638-2.7-.606-3.218-1.25-2.757,3.089-2.848,5.686-1.38,6.077-.765,2.691-1.218Z" transform="translate(-6633.213 -2752.387)" fill="#5a5a5a" stroke="#fff" stroke-miterlimit="10" stroke-width="1"/>
    <path id="Контур_247" data-name="Контур 247" d="M2004.657,1115.936l-4.753-2.472-4.529.1.776-4.243-4.665.032-.419,5.935-2.857,7.844-1.72,4.725.363,3.86,3.448.168,2.149,4.857.952,4.6,2.953,3.036,3.208.616,2.744,2.747-1.73,2.172-3.5.633-.416-2.715-4.32-2.319-.92.944-2.093-2.032-.906-2.625-2.812-2.995-2.566-2.521-.871,3.122-1-2.95.578-3.32,1.56-5.114,2.565-5.5,2.908-5-2.07-4.912.083-2.508-.606-3.021-3.531-4.313-1.263-2.731,1.828-1.007,1.937-4.755-2.168-3.62-3.359-4.022-2.561-4.857,2.236-1.008,2.413-6.024,3.739-.251,3.088-2.428,3.035-1.3,2.291,1.732.3,3.361,3.576.257-1.3,5.861.125,4.959,5.58-3.3,1.586.976,3.1-.161,1.067-1.926,4,.38,4.028,4.491.33,5.429,4.287,4.772-.236,4.613-1.724,2.449-4.963-.78-6.846,1.038-3.391,4.5Z" transform="translate(-6710.358 -2792.716)" fill="#5a5a5a" stroke="#fff" stroke-miterlimit="10" stroke-width="1"/>
    <path id="Контур_248" data-name="Контур 248" d="M1774.234,898l-1.937,2.126-5.763-1.152-.5,3.958,5.743-.531,6.54,2.217,10.012-1.033,1.343,6.275,1.739-.678,3.216,1.533-.185,2.608.8,3.8-5.461-.011-3.646-.489-3.3,2.967-2.349.655-1.847,1.384-2.094-2.158.493-5.582-1.6-.319.576-2.047-2.866-1.53-2.279,2.338-.561,2.7-.814.978-3.165-.14-1.707,3.038-1.786-1.278-3.831,2.126-1.618-.806,2.976-6.74-1.144-5.019-3.884-1.618,1.373-3,4.421.321,2.515-3.794,1.685-4.443,7.079-1.62-1.1,3.227.757,1.924Z" transform="translate(-6647.094 -2742.009)" fill="#5a5a5a" stroke="#fff" stroke-miterlimit="10" stroke-width="1"/>
    <path id="Контур_250" data-name="Контур 250" d="M1690.752,923.67l-.465-5.488-3.947-.236-6.051-5.844-4.228-.725-5.856-3.382-3.765-.617-2.324,1.248-3.541-.195-3.765,3.809-4.653,1.282-.984-4.7.769-7.04-4.128-2.3,1.358-4.689-3.514-.4,1.171-5.843,4.995,1.709,4.651-2.23-3.856-4.209-1.518-4.051-4.262,1.811-.54,5.161-1.654-4.56,2.34-2.36,6.011-1.483,3.579,1.994,3.705,5.537,2.717-.344,5.973-.1-.869-3.55,4.523-2.445,4.46-4.156,7.134,3.781.566,5.65,2.026,1.437,5.724-.323,1.777,1.273,2.6,7.159,6.054,4.734,3.454,3.2,5.537,3.307,7.044,2.87-.146,4.077-1.6-.206-2.5-1.777-.831,2.364-4.462,1.281-1.058,5.259-2.984,1.987-4.179.98-1.1,2.94-3.994.861Z" transform="translate(-6615.519 -2736.944)" fill="#5a5a5a" stroke="#fff" stroke-miterlimit="10" stroke-width="1"/>
    <path id="Контур_254" data-name="Контур 254" d="M2154.319,1036.984l-3.187,9.214-2.27,4.67-2.791-4.808-.6-4.247,3.116-5.661,4.238-4.4,2.417,1.734Z" transform="translate(-6758.399 -2781.588)" fill="#5a5a5a" stroke="#fff" stroke-miterlimit="10" stroke-width="1"/>
    <path id="Контур_260" data-name="Контур 260" d="M1726.1,904.109l.145-4.077-7.044-2.87-5.537-3.307-3.454-3.2-6.054-4.734-2.6-7.159-1.777-1.273-5.724.323-2.026-1.437-.567-5.65-7.134-3.781-4.46,4.156-4.523,2.445.869,3.55-5.973.1-.21-26.677,13.63-4.432.989.654,8.207,5.357,4.332,2.8,5.057,6.606,6.209-1.059,9.081-.57,6.337,5.3-.395,7.178,2.58.049,1.078,5.776,6.732.227,1.452,3.307,1.971-.045,2.317-5,6.983-4.927,3.037-1.316,1.573.7-4.445,4.587,3.909,2.646,3.771-1.75,6.275,3.69-6.781,4.995-4.028-.68-2.185.179-.757-1.924,1.1-3.227-7.079,1.62L1739.3,885.7l-2.515,3.794-4.421-.321-1.373,3,3.885,1.618,1.144,5.019-2.976,6.74-3.994-1.4Z" transform="translate(-6622.761 -2728.617)" fill="#faae0a" stroke="#fff" stroke-miterlimit="10" stroke-width="1"/>
    <path id="Контур_262" data-name="Контур 262" d="M2043.728,1057.72l-7.07,4.829-4.411,5.3-1.163,3.873,4.049,5.85,4.951,7.2,4.8,3.388,3.218,4.389,2.427,10.052-.716,9.481-4.415,3.533-6.063,3.446-4.319,4.453-6.6,4.959-1.924-3.414,1.488-3.612-3.928-3.036,4.583-2.156,5.557-.389-2.324-3.25,8.9-4.137.651-6.47-1.227-3.614.963-5.438-1.333-3.858-4.005-3.812-3.339-4.849-4.4-6.543-6.345-3.327,1.52-2.007,3.384-1.465-2.053-4.895-6.519-.043-2.377-5.131-3.093-4.487,2.842-1.39,4.222.028,5.146-.659,4.513-3.05,2.553,2.149,4.84,1.042-.836,3.284,2.521,2.308Z" transform="translate(-6720.493 -2786.071)" fill="#5a5a5a" stroke="#fff" stroke-miterlimit="10" stroke-width="1"/>
    <path id="Контур_268" data-name="Контур 268" d="M6.432,0a6.432,6.432,0,1,0,6.432,6.432A6.432,6.432,0,0,0,6.432,0Zm0,11.385a4.953,4.953,0,1,1,4.953-4.953,4.95,4.95,0,0,1-4.953,4.953m2.5-4.953a2.5,2.5,0,1,1-2.5-2.5A2.5,2.5,0,0,1,8.934,6.432Z" transform="translate(-4888.993 -1857.609)" fill="#ffdb42"/>
    <path id="Контур_269" data-name="Контур 269" d="M6.432,0a6.432,6.432,0,1,0,6.432,6.432A6.432,6.432,0,0,0,6.432,0Zm0,11.385a4.953,4.953,0,1,1,4.953-4.953,4.95,4.95,0,0,1-4.953,4.953m2.5-4.953a2.5,2.5,0,1,1-2.5-2.5A2.5,2.5,0,0,1,8.934,6.432Z" transform="translate(-4706.292 -1813.779)" fill="#ffdb42"/>
    <path id="Контур_270" data-name="Контур 270" d="M6.432,0a6.432,6.432,0,1,0,6.432,6.432A6.432,6.432,0,0,0,6.432,0Zm0,11.385a4.953,4.953,0,1,1,4.953-4.953,4.95,4.95,0,0,1-4.953,4.953m2.5-4.953a2.5,2.5,0,1,1-2.5-2.5A2.5,2.5,0,0,1,8.934,6.432Z" transform="translate(-4683.859 -1695.303)" fill="#ffdb42"/>
    <path id="Контур_271" data-name="Контур 271" d="M6.432,0a6.432,6.432,0,1,0,6.432,6.432A6.432,6.432,0,0,0,6.432,0Zm0,11.385a4.953,4.953,0,1,1,4.953-4.953,4.95,4.95,0,0,1-4.953,4.953m2.5-4.953a2.5,2.5,0,1,1-2.5-2.5A2.5,2.5,0,0,1,8.934,6.432Z" transform="translate(-4645.014 -1785.564)" fill="#ffdb42"/>
    <path id="Контур_272" data-name="Контур 272" d="M6.432,0a6.432,6.432,0,1,0,6.432,6.432A6.432,6.432,0,0,0,6.432,0Zm0,11.385a4.953,4.953,0,1,1,4.953-4.953,4.95,4.95,0,0,1-4.953,4.953m2.5-4.953a2.5,2.5,0,1,1-2.5-2.5A2.5,2.5,0,0,1,8.934,6.432Z" transform="translate(-4828.499 -1658.66)" fill="#ffdb42"/>
    <path id="Контур_273" data-name="Контур 273" d="M6.432,0a6.432,6.432,0,1,0,6.432,6.432A6.432,6.432,0,0,0,6.432,0Zm0,11.385a4.953,4.953,0,1,1,4.953-4.953,4.95,4.95,0,0,1-4.953,4.953m2.5-4.953a2.5,2.5,0,1,1-2.5-2.5A2.5,2.5,0,0,1,8.934,6.432Z" transform="translate(-4846.882 -1775.578)" fill="#ffdb42"/>
    <path id="Контур_274" data-name="Контур 274" d="M6.432,0a6.432,6.432,0,1,0,6.432,6.432A6.432,6.432,0,0,0,6.432,0Zm0,11.385a4.953,4.953,0,1,1,4.953-4.953,4.95,4.95,0,0,1-4.953,4.953m2.5-4.953a2.5,2.5,0,1,1-2.5-2.5A2.5,2.5,0,0,1,8.934,6.432Z" transform="translate(-4983.45 -1819.822)" fill="#ffdb42"/>
    <path id="Контур_275" data-name="Контур 275" d="M6.432,0a6.432,6.432,0,1,0,6.432,6.432A6.432,6.432,0,0,0,6.432,0Zm0,11.385a4.953,4.953,0,1,1,4.953-4.953,4.95,4.95,0,0,1-4.953,4.953m2.5-4.953a2.5,2.5,0,1,1-2.5-2.5A2.5,2.5,0,0,1,8.934,6.432Z" transform="translate(-4889.219 -1812.458)" fill="#ffdb42"/>
    <path id="Контур_276" data-name="Контур 276" d="M0,3.743H1.017l.872,1.09H4.506L2.907,0H4.179L7.086,4.8h3.561a.62.62,0,0,1,0,1.235H7.086L4.179,10.9H2.907L4.47,6.068H1.89l-.872,1.09H0L.545,5.451" transform="translate(-4736.072 -1850.055) rotate(35.134)" fill="rgba(0,0,0,0.1)"/>
    <path id="Контур_277" data-name="Контур 277" d="M0,6.3H1.712L3.18,8.134h4.4L4.892,0h2.14l4.892,8.073h5.993a1.043,1.043,0,0,1,0,2.079H11.925L7.033,18.347H4.892l2.63-8.134H3.18L1.712,12.048H0L.917,9.173" transform="matrix(0.818, 0.575, -0.575, 0.818, -4737.063, -1855.305)" fill="#ffdb42"/>
    <path id="Контур_278" data-name="Контур 278" d="M0,9.668H2.628l2.253,2.816H11.64L7.509,0h3.285L18.3,12.39h9.2c1.971,0,1.971,3.191,0,3.191H18.3L10.795,28.16H7.509l4.036-12.484H4.881L2.628,18.492H0L1.408,14.08" transform="matrix(0.836, 0.549, -0.549, 0.836, -4767.336, -1839.01)" fill="#ffdb42"/>
    <path id="Контур_279" data-name="Контур 279" d="M0,5.671H1.542L2.863,7.322H6.827L4.4,0H6.331l4.4,7.267h5.4a.939.939,0,0,1,0,1.872h-5.4l-4.4,7.377H4.4L6.772,9.194H2.863L1.542,10.846H0L.826,8.258" transform="matrix(0.951, 0.309, -0.309, 0.951, -4803.789, -1847.561)" fill="#ffdb42"/>
    <path id="Контур_280" data-name="Контур 280" d="M0,8.049H2.188l1.875,2.344H9.69L6.252,0H8.987l6.252,10.315H22.9a1.332,1.332,0,0,1,0,2.657H15.238L8.987,23.443H6.252L9.612,13.05H4.064L2.188,15.394H0l1.172-3.673" transform="translate(-4798.464 -1738.301) rotate(87.232)" fill="#ffdb42"/>
    <path id="Контур_281" data-name="Контур 281" d="M0,2.937H.8l.684.856H3.536L2.282,0h1L5.561,3.765H8.356a.486.486,0,0,1,0,.97H5.561L3.28,8.556h-1L3.508,4.763H1.483L.8,5.618H0l.428-1.34" transform="translate(-4848.234 -1778.461) rotate(-111.369)" fill="#ffdb42"/>
    <path id="Контур_282" data-name="Контур 282" d="M0,3.223H.876l.751.939H3.88L2.5,0H3.6L6.1,4.13H9.167a.533.533,0,0,1,0,1.064H6.1L3.6,9.386H2.5L3.848,5.225H1.627l-.751.939H0L.469,4.693" transform="matrix(0.521, -0.854, 0.854, 0.521, -4980.324, -1817.537)" fill="#ffdb42"/>
    <path id="Контур_283" data-name="Контур 283" d="M0,3.019H.821l.7.879h2.11L2.345,0H3.37L5.715,3.869H8.587a.5.5,0,0,1,0,1H5.715L3.37,8.792H2.345l1.26-3.9H1.524l-.7.879H0L.44,4.4" transform="translate(-4880.925 -1827.979) rotate(87.26)" fill="#ffdb42"/>
    <path id="Контур_284" data-name="Контур 284" d="M1768.21,282.262a299.683,299.683,0,0,1,42.111,82.031" transform="translate(-6650.771 -2133.438)" fill="none" stroke="#ffdb42" stroke-linecap="round" stroke-miterlimit="10" stroke-width="1" opacity="0.3"/>
    <path id="Контур_285" data-name="Контур 285" d="M1768.21,282.262a299.683,299.683,0,0,1,42.111,82.031" transform="translate(-6650.771 -2133.438)" fill="none" stroke="rgba(255,219,66,0)" stroke-miterlimit="10" stroke-width="5"/>
    <path id="Контур_286" data-name="Контур 286" d="M1730.506,280.419a76.3,76.3,0,0,0-94.455,37.786" transform="translate(-6613.067 -2131.595)" fill="none" stroke="#ffdb42" stroke-linecap="round" stroke-miterlimit="10" stroke-width="1" opacity="0.3"/>
    <path id="Контур_287" data-name="Контур 287" d="M1730.506,280.419a76.3,76.3,0,0,0-94.455,37.786" transform="translate(-6613.067 -2131.595)" fill="none" stroke="rgba(255,219,66,0)" stroke-miterlimit="10" stroke-width="5"/>
    <path id="Контур_288" data-name="Контур 288" d="M1767.15,282.262a101.593,101.593,0,0,0-.227,45.151" transform="translate(-6649.711 -2133.438)" fill="none" stroke="#ffdb42" stroke-linecap="round" stroke-miterlimit="10" stroke-width="1" opacity="0.3"/>
    <path id="Контур_289" data-name="Контур 289" d="M1767.15,282.262a101.593,101.593,0,0,0-.227,45.151" transform="translate(-6649.711 -2133.438)" fill="none" stroke="rgba(255,219,66,0)" stroke-miterlimit="10" stroke-width="5"/>
    <path id="Контур_290" data-name="Контур 290" d="M1768.21,275.524a140.913,140.913,0,0,1,182.7,43.829" transform="translate(-6650.771 -2126.7)" fill="none" stroke="#ffdb42" stroke-linecap="round" stroke-miterlimit="10" stroke-width="1" opacity="0.3"/>
    <path id="Контур_291" data-name="Контур 291" d="M1768.21,275.524a140.913,140.913,0,0,1,182.7,43.829" transform="translate(-6650.771 -2126.7)" fill="none" stroke="rgba(255,219,66,0)" stroke-miterlimit="10" stroke-width="5"/>
    <path id="Контур_292" data-name="Контур 292" d="M1768.21,282.117a196.183,196.183,0,0,1,205.136,162.307" transform="translate(-6650.771 -2133.293)" fill="none" stroke="#ffdb42" stroke-linecap="round" stroke-miterlimit="10" stroke-width="1" opacity="0.3"/>
    <path id="Контур_293" data-name="Контур 293" d="M1768.21,282.117a196.183,196.183,0,0,1,205.136,162.307" transform="translate(-6650.771 -2133.293)" fill="none" stroke="rgba(255,219,66,0)" stroke-miterlimit="10" stroke-width="5"/>
    <path id="Контур_294" data-name="Контур 294" d="M1768.21,275.532c146.638,2.456,230.521-72.058,244.373,73.945" transform="translate(-6650.771 -2126.709)" fill="none" stroke="#ffdb42" stroke-linecap="round" stroke-miterlimit="10" stroke-width="1" opacity="0.3"/>
    <path id="Контур_295" data-name="Контур 295" d="M1768.21,282.262c146.638,2.456,244.671,17.425,258.523,163.427" transform="translate(-6650.771 -2133.438)" fill="none" stroke="rgba(255,219,66,0)" stroke-miterlimit="10" stroke-width="5"/>
    <path id="Контур_296" data-name="Контур 296" d="M1768.21,282.262a157.653,157.653,0,0,1,57.16,202.284" transform="translate(-6648.548 -2135.66)" fill="none" stroke="#ffdb42" stroke-linecap="round" stroke-miterlimit="10" stroke-width="1" opacity="0.3"/>
    <path id="Контур_297" data-name="Контур 297" d="M1768.21,282.262c67.784,43.034,95.1,126.676,59.865,198.822" transform="translate(-6650.771 -2133.438)" fill="none" stroke="rgba(255,219,66,0)" stroke-miterlimit="10" stroke-width="5"/>
    <path id="Контур_298" data-name="Контур 298" d="M1.5,32.5H14.365" transform="translate(-4975.838 -1845.399)" fill="none" stroke="rgba(0,0,0,0)" stroke-miterlimit="10" stroke-width="1"/>
    <path id="Контур_299" data-name="Контур 299" d="M1.5,32.5H14.365" transform="translate(-4975.838 -1845.399)" fill="none" stroke="rgba(0,0,0,0)" stroke-miterlimit="10" stroke-width="1"/>
    <path id="Контур_300" data-name="Контур 300" d="M1.5,33.5H14.365" transform="translate(-4975.838 -1845.684)" fill="none" stroke="rgba(0,0,0,0)" stroke-miterlimit="10" stroke-width="1"/>
    <path id="Контур_301" data-name="Контур 301" d="M1.5,34.5H14.365" transform="translate(-4975.838 -1845.969)" fill="none" stroke="rgba(0,0,0,0)" stroke-miterlimit="10" stroke-width="1"/>
    <path id="Контур_302" data-name="Контур 302" d="M1.5,35.5H14.365" transform="translate(-4975.838 -1846.255)" fill="none" stroke="rgba(0,0,0,0)" stroke-miterlimit="10" stroke-width="1"/>
    <path id="Контур_303" data-name="Контур 303" d="M1.5,35.5H14.365" transform="translate(-4975.838 -1846.255)" fill="none" stroke="rgba(0,0,0,0)" stroke-miterlimit="10" stroke-width="1"/>
    <rect id="Прямоугольник_42" data-name="Прямоугольник 42" width="15.009" height="0.715" rx="0.357" transform="translate(-4975.886 -1812.184)" fill="#fff" stroke="rgba(0,0,0,0.1)" stroke-miterlimit="10" stroke-width="1" opacity="0"/>
  </g>
</svg>
