<svg xmlns="http://www.w3.org/2000/svg" width="38.169" height="26.424" viewBox="0 0 38.169 26.424">
  <g id="mail" transform="translate(-3.375 -7.875)">
    <path id="Path_15" data-name="Path 15" d="M41.232,10.37,31.359,20.426a.177.177,0,0,0,0,.257l6.909,7.358a1.191,1.191,0,0,1,0,1.688,1.2,1.2,0,0,1-1.688,0L29.7,22.4a.188.188,0,0,0-.266,0l-1.679,1.707a7.387,7.387,0,0,1-5.267,2.22,7.536,7.536,0,0,1-5.377-2.285L15.5,22.4a.188.188,0,0,0-.266,0L8.348,29.73a1.2,1.2,0,0,1-1.688,0,1.191,1.191,0,0,1,0-1.688l6.909-7.358a.2.2,0,0,0,0-.257L3.687,10.37a.181.181,0,0,0-.312.128V30.62a2.945,2.945,0,0,0,2.936,2.936h32.3a2.945,2.945,0,0,0,2.936-2.936V10.5A.184.184,0,0,0,41.232,10.37Z" transform="translate(0 0.744)" fill="#fff"/>
    <path id="Path_16" data-name="Path 16" d="M22.2,24.675a4.988,4.988,0,0,0,3.587-1.5l14.4-14.653a2.884,2.884,0,0,0-1.817-.642H6.042a2.865,2.865,0,0,0-1.817.642l14.4,14.653A4.989,4.989,0,0,0,22.2,24.675Z" transform="translate(0.259)" fill="#fff"/>
  </g>
</svg>
