<svg xmlns="http://www.w3.org/2000/svg" width="31.5" height="31.5" viewBox="0 0 31.5 31.5">
  <path id="time" d="M4.488,19.606a15.444,15.444,0,0,1,2.126-7.917A15.737,15.737,0,0,1,12.363,5.94a15.72,15.72,0,0,1,14-.867A15.891,15.891,0,0,1,31.386,8.43a15.422,15.422,0,0,1,3.357,5.036,15.642,15.642,0,0,1-8.379,20.618,15.7,15.7,0,0,1-12.253,0,15.955,15.955,0,0,1-5.036-3.357,15.828,15.828,0,0,1-3.357-5.008A15.158,15.158,0,0,1,4.488,19.606Zm3.469,0A11.888,11.888,0,0,0,11.58,28.25a11.814,11.814,0,0,0,8.672,3.623,11.892,11.892,0,0,0,6.141-1.651,12.41,12.41,0,0,0,4.49-4.476,12.185,12.185,0,0,0,0-12.3,12.34,12.34,0,0,0-4.49-4.49,12.248,12.248,0,0,0-12.281,0,12.6,12.6,0,0,0-4.5,4.49A11.844,11.844,0,0,0,7.957,19.606Zm4.6-.014a1.146,1.146,0,0,1,1.161-1.161h5.3V10.29a1.161,1.161,0,1,1,2.322,0v9.33a1.146,1.146,0,0,1-1.161,1.161,1.147,1.147,0,0,1-.266-.014h-6.21a1.09,1.09,0,0,1-.825-.35A1.225,1.225,0,0,1,12.559,19.592Z" transform="translate(-4.488 -3.828)" fill="#fff"/>
</svg>
